<svg width="56" height="56" viewBox="0 0 56 56" fill="none" xmlns="http://www.w3.org/2000/svg">
<path d="M42 52.5H14C13.072 52.4991 12.1823 52.13 11.5261 51.4739C10.87 50.8177 10.5009 49.928 10.5 49V7C10.5009 6.07203 10.87 5.18233 11.5261 4.52615C12.1823 3.86997 13.072 3.50093 14 3.5H42C42.928 3.50093 43.8177 3.86997 44.4739 4.52615C45.13 5.18233 45.4991 6.07203 45.5 7V36.0815L36.75 31.7065L28 36.0815V7H14V49H42V42H45.5V49C45.4986 49.9278 45.1294 50.8173 44.4733 51.4733C43.8173 52.1294 42.9278 52.4986 42 52.5ZM36.75 27.7935L42 30.4185V7H31.5V30.4185L36.75 27.7935Z" fill="black"/>
</svg>
