<svg width="500" height="346" viewBox="0 0 500 346" fill="none" xmlns="http://www.w3.org/2000/svg">
<g clip-path="url(#clip0_240_337)">
<g opacity="0.2">
<path opacity="0.2" d="M445.308 39.3828H146.042V249.644H445.308V39.3828Z" fill="#D9FAFF"/>
<path opacity="0.2" d="M271.721 43.5513L225.565 142.131H199.318L245.477 43.5513H271.721Z" fill="white"/>
<path opacity="0.2" d="M231.203 43.5513L185.047 142.131H169.852L216.005 43.5513H231.203Z" fill="white"/>
<path opacity="0.2" d="M427.059 42.6582L380.9 141.238H354.655L400.814 42.6582H427.059Z" fill="white"/>
<path opacity="0.2" d="M386.538 42.6582L340.385 141.238H325.189L371.343 42.6582H386.538Z" fill="white"/>
<path opacity="0.2" d="M427.059 148.386L380.9 246.963H354.655L400.814 148.386H427.059Z" fill="white"/>
<path opacity="0.2" d="M386.538 148.386L340.385 246.963H325.189L371.343 148.386H386.538Z" fill="white"/>
<path opacity="0.2" d="M271.721 148.386L225.565 246.963H199.318L245.477 148.386H271.721Z" fill="white"/>
<path opacity="0.2" d="M231.203 148.386L185.047 246.963H169.852L216.005 148.386H231.203Z" fill="white"/>
<path opacity="0.2" d="M300.941 250.158V43.3352C300.941 42.4681 299.905 41.7651 298.627 41.7651H292.283C291.005 41.7651 289.97 42.4681 289.97 43.3352V250.158C289.97 251.025 291.005 251.728 292.283 251.728H298.627C299.905 251.728 300.941 251.025 300.941 250.158Z" fill="#E2B38E"/>
<path opacity="0.2" d="M140.78 42.7409V249.564C140.78 250.431 141.815 251.134 143.093 251.134H149.437C150.715 251.134 151.751 250.431 151.751 249.564V42.7409C151.751 41.8739 150.715 41.1709 149.437 41.1709H143.093C141.815 41.1709 140.78 41.8739 140.78 42.7409Z" fill="#E2B38E"/>
<path opacity="0.2" d="M440.042 42.7409V249.564C440.042 250.431 441.077 251.134 442.355 251.134H448.699C449.978 251.134 451.013 250.431 451.013 249.564V42.7409C451.013 41.8739 449.978 41.1709 448.699 41.1709H442.355C441.077 41.1709 440.042 41.8739 440.042 42.7409Z" fill="#E2B38E"/>
<path opacity="0.2" d="M298.188 252.71H291.844C290.846 252.71 289.892 252.441 289.186 251.962C288.48 251.483 288.084 250.835 288.084 250.158V43.3355C288.084 42.6588 288.48 42.01 289.186 41.5315C289.892 41.0531 290.846 40.7842 291.844 40.7842H298.188C299.185 40.7842 300.14 41.0531 300.845 41.5315C301.551 42.01 301.947 42.6588 301.947 43.3355V250.158C301.947 250.835 301.551 251.483 300.845 251.962C300.14 252.441 299.185 252.71 298.188 252.71ZM291.846 42.7467C291.615 42.7467 291.395 42.8088 291.233 42.9193C291.072 43.0295 290.979 43.1793 290.979 43.3355V250.158C290.979 250.315 291.072 250.464 291.233 250.574C291.395 250.684 291.615 250.747 291.846 250.747H298.191C298.422 250.747 298.642 250.684 298.804 250.574C298.966 250.464 299.058 250.315 299.058 250.158V43.3355C299.058 43.1793 298.966 43.0295 298.804 42.9193C298.642 42.8088 298.422 42.7467 298.191 42.7467H291.846Z" fill="#385868"/>
<path opacity="0.2" d="M148.994 252.115H142.653C141.656 252.115 140.7 251.846 139.995 251.367C139.29 250.888 138.894 250.241 138.894 249.564V42.7408C138.894 42.0641 139.29 41.4153 139.995 40.9368C140.7 40.4583 141.656 40.1895 142.653 40.1895H148.997C149.994 40.1895 150.95 40.4583 151.655 40.9368C152.36 41.4153 152.756 42.0641 152.756 42.7408V249.564C152.756 249.899 152.659 250.231 152.47 250.541C152.281 250.851 152.004 251.132 151.654 251.369C151.305 251.605 150.89 251.793 150.434 251.921C149.978 252.05 149.488 252.115 148.994 252.115ZM142.653 42.152C142.423 42.152 142.202 42.214 142.04 42.3245C141.877 42.4348 141.786 42.5846 141.786 42.7408V249.564C141.786 249.721 141.877 249.87 142.04 249.98C142.202 250.09 142.423 250.152 142.653 250.152H148.997C149.228 250.152 149.448 250.09 149.611 249.98C149.773 249.87 149.865 249.721 149.865 249.564V42.7408C149.865 42.5846 149.773 42.4348 149.611 42.3245C149.448 42.214 149.228 42.152 148.997 42.152H142.653Z" fill="#385868"/>
<path opacity="0.2" d="M448.26 252.115H441.916C440.918 252.115 439.964 251.846 439.258 251.367C438.553 250.888 438.157 250.241 438.157 249.564V42.7408C438.157 42.0641 438.553 41.4153 439.258 40.9368C439.964 40.4583 440.918 40.1895 441.916 40.1895H448.26C449.258 40.1895 450.215 40.4583 450.917 40.9368C451.623 41.4153 452.019 42.0641 452.019 42.7408V249.564C452.019 250.241 451.623 250.888 450.917 251.367C450.215 251.846 449.258 252.115 448.26 252.115ZM441.916 42.152C441.687 42.152 441.465 42.214 441.303 42.3245C441.141 42.4348 441.048 42.5846 441.048 42.7408V249.564C441.048 249.721 441.141 249.87 441.303 249.98C441.465 250.09 441.687 250.152 441.916 250.152H448.26C448.491 250.152 448.711 250.09 448.873 249.98C449.038 249.87 449.127 249.721 449.127 249.564V42.7408C449.127 42.5846 449.038 42.4348 448.873 42.3245C448.711 42.214 448.491 42.152 448.26 42.152H441.916Z" fill="#385868"/>
<path opacity="0.2" d="M451.331 35.5107H141.344C140.066 35.5107 139.03 36.2137 139.03 37.0808V41.3867C139.03 42.2537 140.066 42.9567 141.344 42.9567H451.331C452.609 42.9567 453.645 42.2537 453.645 41.3867V37.0808C453.645 36.2137 452.609 35.5107 451.331 35.5107Z" fill="#E2B38E"/>
<path opacity="0.2" d="M450.886 43.9378H140.904C139.907 43.9378 138.951 43.669 138.246 43.1905C137.541 42.712 137.145 42.0632 137.145 41.3865V37.0806C137.145 36.4039 137.541 35.7551 138.246 35.2766C138.951 34.7982 139.907 34.5293 140.904 34.5293H450.886C451.883 34.5293 452.84 34.7982 453.543 35.2766C454.249 35.7551 454.645 36.4039 454.645 37.0806V41.3865C454.645 42.0632 454.249 42.712 453.543 43.1905C452.84 43.669 451.883 43.9378 450.886 43.9378ZM140.904 36.4919C140.674 36.4919 140.453 36.5539 140.29 36.6644C140.128 36.7747 140.036 36.9244 140.036 37.0806V41.3865C140.036 41.5427 140.128 41.6925 140.29 41.8028C140.453 41.9132 140.674 41.9753 140.904 41.9753H450.886C451.117 41.9753 451.337 41.9132 451.499 41.8028C451.663 41.6925 451.753 41.5427 451.753 41.3865V37.0806C451.753 36.9244 451.663 36.7747 451.499 36.6644C451.337 36.5539 451.117 36.4919 450.886 36.4919H140.904Z" fill="#385868"/>
<path opacity="0.2" d="M451.331 245.772H141.344C140.066 245.772 139.03 246.475 139.03 247.342V251.648C139.03 252.515 140.066 253.218 141.344 253.218H451.331C452.609 253.218 453.645 252.515 453.645 251.648V247.342C453.645 246.475 452.609 245.772 451.331 245.772Z" fill="#E2B38E"/>
<path opacity="0.2" d="M450.886 254.199H140.904C139.907 254.199 138.951 253.93 138.246 253.451C137.541 252.973 137.145 252.325 137.145 251.648V247.342C137.145 246.665 137.541 246.017 138.246 245.538C138.951 245.059 139.907 244.791 140.904 244.791H450.886C451.883 244.791 452.84 245.059 453.543 245.538C454.249 246.017 454.645 246.665 454.645 247.342V251.648C454.645 252.325 454.249 252.973 453.543 253.451C452.84 253.93 451.883 254.199 450.886 254.199ZM140.904 246.753C140.674 246.753 140.453 246.816 140.29 246.926C140.128 247.036 140.036 247.185 140.036 247.342V251.648C140.036 251.805 140.128 251.954 140.29 252.064C140.453 252.174 140.674 252.237 140.904 252.237H450.886C451.117 252.237 451.337 252.174 451.499 252.064C451.663 251.954 451.753 251.805 451.753 251.648V247.342C451.753 247.185 451.663 247.036 451.499 246.926C451.337 246.816 451.117 246.753 450.886 246.753H140.904Z" fill="#385868"/>
<path opacity="0.2" d="M451.331 141.534H141.344C140.066 141.534 139.03 142.237 139.03 143.104V147.41C139.03 148.277 140.066 148.98 141.344 148.98H451.331C452.609 148.98 453.645 148.277 453.645 147.41V143.104C453.645 142.237 452.609 141.534 451.331 141.534Z" fill="#E2B38E"/>
<path opacity="0.2" d="M450.886 149.961H140.904C139.907 149.961 138.951 149.692 138.246 149.214C137.541 148.735 137.145 148.087 137.145 147.41V143.104C137.145 142.427 137.541 141.779 138.246 141.3C138.951 140.822 139.907 140.553 140.904 140.553H450.886C451.883 140.553 452.84 140.822 453.543 141.3C454.249 141.779 454.645 142.427 454.645 143.104V147.41C454.645 148.087 454.249 148.735 453.543 149.214C452.84 149.692 451.883 149.961 450.886 149.961ZM140.904 142.515C140.674 142.515 140.453 142.577 140.29 142.688C140.128 142.798 140.036 142.948 140.036 143.104V147.41C140.036 147.566 140.128 147.716 140.29 147.826C140.453 147.937 140.674 147.999 140.904 147.999H450.886C451.117 147.999 451.337 147.937 451.499 147.826C451.663 147.716 451.753 147.566 451.753 147.41V143.104C451.753 142.948 451.663 142.798 451.499 142.688C451.337 142.577 451.117 142.515 450.886 142.515H140.904Z" fill="#385868"/>
</g>
<g opacity="0.2">
<path opacity="0.2" d="M43.7729 206.099V207.669H79.6291V206.099H43.7729Z" fill="#385868"/>
<path opacity="0.2" d="M90.6128 212.734L90.6016 214.304L126.457 214.424L126.469 212.854L90.6128 212.734Z" fill="#385868"/>
<path opacity="0.2" d="M45.89 224.822L45.6821 238.933L47.9954 238.948L48.2033 224.837L45.89 224.822Z" fill="#385868"/>
<path opacity="0.2" d="M94.6317 199.569L94.4238 213.68L96.7371 213.696L96.945 199.585L94.6317 199.569Z" fill="#385868"/>
<path opacity="0.2" d="M62.7596 218.709H107.802C110.799 218.709 113.227 217.06 113.227 215.027V211.518C113.227 209.484 110.799 207.836 107.802 207.836H62.7596C59.7636 207.836 57.335 209.484 57.335 211.518V215.027C57.335 217.06 59.7636 218.709 62.7596 218.709Z" fill="#F2F2F2"/>
<path opacity="0.2" d="M107.803 219.495H62.7488C61.004 219.493 59.3315 219.022 58.0976 218.184C56.8641 217.348 56.1698 216.212 56.1675 215.029V211.522C56.1683 210.336 56.8618 209.2 58.0956 208.362C59.3295 207.524 61.0031 207.053 62.7488 207.051H107.803C109.548 207.053 111.221 207.524 112.454 208.362C113.688 209.198 114.382 210.334 114.385 211.518V215.025C114.384 216.21 113.69 217.346 112.456 218.184C111.223 219.022 109.549 219.493 107.803 219.495ZM62.7488 208.621C61.6173 208.623 60.5327 208.927 59.7326 209.471C58.9325 210.014 58.4822 210.75 58.4808 211.518V215.025C58.4808 215.794 58.9304 216.53 59.7305 217.074C60.5309 217.619 61.6165 217.923 62.7488 217.925H107.803C108.935 217.923 110.019 217.619 110.82 217.076C111.62 216.532 112.07 215.796 112.071 215.029V211.522C112.071 210.752 111.622 210.016 110.822 209.473C110.021 208.927 108.936 208.623 107.803 208.621H62.7488Z" fill="#385868"/>
<path opacity="0.2" d="M24.3124 229.581H69.3551C72.3511 229.581 74.7798 227.933 74.7798 225.899V222.39C74.7798 220.357 72.3511 218.708 69.3551 218.708H24.3124C21.3164 218.708 18.8877 220.357 18.8877 222.39V225.899C18.8877 227.933 21.3164 229.581 24.3124 229.581Z" fill="#F2F2F2"/>
<path opacity="0.2" d="M69.3555 230.368H24.3157C23.4503 230.368 22.5935 230.252 21.7942 230.027C20.995 229.801 20.2689 229.471 19.6575 229.055C19.0461 228.639 18.5613 228.146 18.2309 227.603C17.9004 227.061 17.7307 226.478 17.7314 225.891V222.384C17.7338 221.201 18.4279 220.065 19.6616 219.228C20.8953 218.39 22.568 217.919 24.3128 217.917H69.3555C71.1003 217.919 72.7731 218.39 74.0067 219.228C75.2406 220.065 75.9346 221.201 75.9369 222.384V225.891C75.9386 227.077 75.2461 228.215 74.0119 229.055C72.7778 229.893 71.1029 230.366 69.3555 230.368ZM24.3157 219.495C23.1842 219.497 22.0995 219.802 21.2994 220.345C20.4993 220.889 20.0492 221.625 20.0476 222.392V225.891C20.0492 226.659 20.4993 227.395 21.2994 227.938C22.0995 228.482 23.1842 228.786 24.3157 228.788H69.3555C70.487 228.786 71.5717 228.482 72.3718 227.938C73.1719 227.395 73.6221 226.659 73.6236 225.891V222.384C73.6221 221.617 73.1719 220.881 72.3718 220.337C71.5717 219.794 70.487 219.489 69.3555 219.488L24.3157 219.495Z" fill="#385868"/>
</g>
<g opacity="0.2">
<path opacity="0.2" d="M26.126 43.7729V45.343H61.9823V43.7729H26.126Z" fill="#385868"/>
<path opacity="0.2" d="M72.8814 49.6089L72.8701 51.1789L108.726 51.2979L108.737 49.7278L72.8814 49.6089Z" fill="#385868"/>
<path opacity="0.2" d="M28.1142 61.4253L27.9062 75.5361L30.2196 75.5518L30.4275 61.441L28.1142 61.4253Z" fill="#385868"/>
<path opacity="0.2" d="M76.8617 36.1758L76.6538 50.2866L78.9671 50.3023L79.175 36.1915L76.8617 36.1758Z" fill="#385868"/>
<path opacity="0.2" d="M45.0282 55.5918H90.0711C93.0671 55.5918 95.4957 53.9435 95.4957 51.9101V48.401C95.4957 46.3676 93.0671 44.7192 90.0711 44.7192H45.0282C42.0322 44.7192 39.6035 46.3676 39.6035 48.401V51.9101C39.6035 53.9435 42.0322 55.5918 45.0282 55.5918Z" fill="#F2F2F2"/>
<path opacity="0.2" d="M90.0687 56.3748H45.0316C43.2883 56.3716 41.6181 55.8998 40.386 55.0628C39.1541 54.2256 38.4613 53.0912 38.459 51.908V48.4009C38.4613 47.2167 39.1553 46.0815 40.3891 45.2441C41.623 44.4069 43.2955 43.9357 45.0403 43.9341H90.0687C91.8135 43.9357 93.486 44.4069 94.7199 45.2441C95.9538 46.0815 96.6477 47.2167 96.6501 48.4009V51.908C96.6477 53.0922 95.9538 54.2273 94.7199 55.0647C93.486 55.9022 91.8135 56.3732 90.0687 56.3748ZM45.0288 45.5022C43.8987 45.5053 42.8167 45.8121 42.0189 46.3553C41.2214 46.8985 40.7732 47.6339 40.7723 48.4009V51.908C40.7737 52.6759 41.224 53.4121 42.0241 53.9551C42.8242 54.4982 43.9088 54.8037 45.0403 54.8047H90.0687C91.2002 54.8037 92.2849 54.4982 93.085 53.9551C93.8851 53.4121 94.3353 52.6759 94.3368 51.908V48.4009C94.3353 47.6329 93.8851 46.8968 93.085 46.3537C92.2849 45.8107 91.2002 45.5051 90.0687 45.5041L45.0288 45.5022Z" fill="#385868"/>
<path opacity="0.2" d="M6.58144 66.462H51.6243C54.6203 66.462 57.0489 64.8136 57.0489 62.7802V59.2711C57.0489 57.2377 54.6203 55.5894 51.6243 55.5894H6.58144C3.58545 55.5894 1.15674 57.2377 1.15674 59.2711V62.7802C1.15674 64.8136 3.58545 66.462 6.58144 66.462Z" fill="#F2F2F2"/>
<path opacity="0.2" d="M51.6213 67.2493H6.58134C4.83607 67.2478 3.16298 66.7763 1.92915 65.9385C0.695317 65.1009 0.00153011 63.9652 0 62.7806V59.2695C0.00229526 58.0853 0.696422 56.9502 1.93017 56.1128C3.1639 55.2753 4.83656 54.8043 6.58134 54.8027H51.6213C53.3667 54.8037 55.0401 55.2747 56.2742 56.112C57.5086 56.9494 58.2032 58.0849 58.2055 59.2695V62.7766C58.2055 63.9622 57.5121 65.0993 56.2774 65.9379C55.0427 66.7765 53.3681 67.2483 51.6213 67.2493ZM6.58134 56.3748C5.45037 56.3757 4.36609 56.6811 3.5661 57.2236C2.76609 57.7662 2.3156 58.502 2.3133 59.2695V62.7766C2.31483 63.5446 2.76499 64.2807 3.56506 64.8238C4.36514 65.3668 5.44985 65.6724 6.58134 65.6734H51.6213C52.7528 65.6724 53.8374 65.3668 54.6376 64.8238C55.4377 64.2807 55.8879 63.5446 55.8893 62.7766V59.2695C55.8879 58.5016 55.4377 57.7654 54.6376 57.2224C53.8374 56.6793 52.7528 56.3738 51.6213 56.3728L6.58134 56.3748Z" fill="#385868"/>
</g>
<g opacity="0.2">
<path opacity="0.2" d="M484.724 236.03H529.766C532.762 236.03 535.191 234.381 535.191 232.348V228.839C535.191 226.806 532.762 225.157 529.766 225.157H484.724C481.728 225.157 479.299 226.806 479.299 228.839V232.348C479.299 234.381 481.728 236.03 484.724 236.03Z" fill="#F2F2F2"/>
<path opacity="0.2" d="M529.763 236.815H484.723C482.98 236.813 481.306 236.342 480.071 235.504C478.839 234.668 478.145 233.531 478.142 232.348V228.835C478.145 227.652 478.839 226.515 480.071 225.677C481.306 224.841 482.98 224.37 484.723 224.368H529.763C531.507 224.37 533.181 224.841 534.413 225.677C535.648 226.515 536.342 227.652 536.345 228.835V232.342C536.345 233.527 535.651 234.664 534.416 235.502C533.184 236.342 531.51 236.813 529.763 236.815ZM484.723 225.942C483.593 225.944 482.506 226.248 481.707 226.792C480.906 227.336 480.455 228.072 480.455 228.839V232.346C480.455 233.113 480.906 233.849 481.707 234.393C482.506 234.937 483.593 235.241 484.723 235.243H529.763C530.894 235.241 531.978 234.937 532.779 234.393C533.58 233.849 534.029 233.113 534.031 232.346V228.835C534.029 228.068 533.58 227.332 532.779 226.788C531.978 226.244 530.894 225.94 529.763 225.938L484.723 225.942Z" fill="#385868"/>
</g>
<g opacity="0.2">
<path opacity="0.2" d="M484.724 30.357H529.766C532.762 30.357 535.191 28.7086 535.191 26.6752V23.1662C535.191 21.1328 532.762 19.4844 529.766 19.4844H484.724C481.728 19.4844 479.299 21.1328 479.299 23.1662V26.6752C479.299 28.7086 481.728 30.357 484.724 30.357Z" fill="#F2F2F2"/>
<path opacity="0.2" d="M529.763 31.1439H484.723C482.98 31.1423 481.306 30.6713 480.071 29.8339C478.839 28.9964 478.145 27.8613 478.142 26.6771V23.1582C478.145 21.974 478.839 20.8388 480.071 20.0014C481.306 19.1641 482.98 18.693 484.723 18.6914H529.763C531.507 18.6924 533.181 19.1633 534.416 20.0006C535.651 20.8381 536.345 21.9736 536.348 23.1582V26.6653C536.348 27.2529 536.18 27.8348 535.847 28.3778C535.518 28.9209 535.035 29.4145 534.422 29.8303C533.812 30.2462 533.086 30.5763 532.285 30.8018C531.487 31.0271 530.628 31.1433 529.763 31.1439ZM484.723 20.2713C483.593 20.2723 482.511 20.5764 481.713 21.1173C480.912 21.6582 480.461 22.392 480.455 23.1582V26.6653C480.455 27.4333 480.906 28.1694 481.707 28.7125C482.506 29.2555 483.593 29.5611 484.723 29.5621H529.763C530.894 29.5611 531.978 29.2555 532.779 28.7125C533.58 28.1694 534.028 27.4333 534.031 26.6653V23.1582C534.028 22.3903 533.58 21.6541 532.779 21.1111C531.978 20.568 530.894 20.2624 529.763 20.2615L484.723 20.2713Z" fill="#385868"/>
</g>
<path d="M484.573 343.889H90.4448V345.851H484.573V343.889Z" fill="#385868"/>
<path d="M528.815 343.889H492.669V345.851H528.815V343.889Z" fill="#385868"/>
<path d="M84.372 343.889H59.2148V345.851H84.372V343.889Z" fill="#385868"/>
<path d="M324.056 187.892V197.63C324.056 200.211 325.568 202.688 328.257 204.513C330.946 206.338 334.593 207.363 338.395 207.363H355.892C363.778 207.363 371.34 209.488 376.915 213.272C382.49 217.056 385.621 222.188 385.621 227.54V283.224H229.914V227.54C229.914 222.188 233.047 217.058 238.622 213.274C244.197 209.49 251.758 207.365 259.642 207.365H277.14C279.023 207.365 280.887 207.111 282.627 206.623C284.366 206.134 285.947 205.416 287.278 204.513C288.61 203.608 289.666 202.535 290.386 201.355C291.106 200.174 291.476 198.908 291.476 197.63V187.892" fill="#FFC6AD"/>
<path d="M384.424 228.148V283.834H229.914V228.148C229.914 222.796 233.047 217.666 238.622 213.882C244.197 210.098 251.758 207.973 259.642 207.973H267.962C268.745 213.03 273.982 217.829 280.471 220.366C287.061 222.943 294.804 223.828 302.4 224.062C312.142 224.362 322.118 223.626 331.027 220.933C339.485 218.382 346.931 213.733 350.612 207.981H354.695C362.578 207.981 370.137 210.104 375.712 213.886C381.287 217.668 384.421 222.798 384.424 228.148Z" fill="#82F0B7"/>
<path d="M383.825 228.148V237.682C383.825 232.33 380.694 227.198 375.119 223.414C369.544 219.63 361.982 217.505 354.097 217.505H350.014C346.324 223.265 338.887 227.906 330.429 230.458C321.52 233.15 311.543 233.886 301.802 233.586C294.205 233.353 286.462 232.465 279.872 229.891C273.38 227.353 268.143 222.555 267.362 217.497H259.043C255.137 217.497 251.27 218.017 247.661 219.032C244.052 220.046 240.774 221.532 238.012 223.408C235.25 225.282 233.06 227.508 231.566 229.957C230.072 232.407 229.304 235.031 229.306 237.682V228.148C229.306 225.498 230.076 222.874 231.57 220.425C233.065 217.978 235.256 215.752 238.017 213.88C240.778 212.006 244.057 210.52 247.664 209.507C251.272 208.493 255.139 207.973 259.043 207.973H267.362C268.146 213.03 273.383 217.829 279.872 220.366C286.462 222.943 294.205 223.828 301.802 224.062C311.543 224.362 321.52 223.626 330.429 220.933C338.887 218.382 346.333 213.733 350.014 207.981H354.097C361.979 207.981 369.538 210.104 375.113 213.886C380.688 217.668 383.823 222.798 383.825 228.148Z" fill="#BEF8D9"/>
<path d="M323.457 189.311V196.712L323.197 196.755C312.613 198.47 301.64 198.784 290.88 197.679V189.311H323.457Z" fill="#E39493"/>
<path d="M321.124 187.892C321.124 191.183 321.037 194.478 321.124 197.768C321.167 199.418 321.757 201.041 322.85 202.515C323.94 203.991 325.507 205.278 327.433 206.287C330.484 207.879 334.084 208.54 337.898 208.54C343.444 208.54 348.99 208.524 354.536 208.54C363.636 208.566 372.366 211.513 377.6 216.614C381.212 220.133 382.681 224.139 382.681 228.389V276.296C382.681 278.48 382.426 280.747 382.681 282.927C382.681 283.027 382.681 283.123 382.681 283.233L384.416 282.056H235.035C233.068 282.056 230.946 281.901 228.986 282.056C228.896 282.06 228.806 282.06 228.717 282.056L230.452 283.233V229.581C230.452 226.568 230.68 223.662 232.265 220.786C235.636 214.671 243.756 210.128 253.157 208.878C255.907 208.513 258.671 208.542 261.456 208.542H271.744C274.268 208.542 276.856 208.646 279.34 208.295C281.683 207.949 283.882 207.253 285.778 206.258C287.674 205.261 289.22 203.991 290.299 202.539C291.814 200.464 292.017 198.329 292.017 196.072V187.892C292.017 186.377 288.547 186.375 288.547 187.892C288.547 191.183 288.634 194.478 288.547 197.768C288.496 199.351 287.804 200.896 286.548 202.23C285.292 203.567 283.52 204.642 281.425 205.341C278.782 206.226 276.006 206.185 273.158 206.185H263.037C260.582 206.185 258.09 206.118 255.641 206.275C250.789 206.587 246.108 207.651 241.959 209.388C237.811 211.123 234.306 213.482 231.715 216.284C228.344 219.954 226.993 224.099 226.993 228.382V263.886C226.993 270.224 226.773 276.582 226.993 282.923C226.993 283.025 226.993 283.12 226.993 283.229C227 283.54 227.185 283.838 227.509 284.058C227.833 284.277 228.27 284.403 228.728 284.407H365.29C371.568 284.407 377.889 284.56 384.164 284.407C384.254 284.407 384.343 284.407 384.433 284.407C384.893 284.403 385.329 284.277 385.653 284.058C385.977 283.838 386.162 283.54 386.168 283.229V229.581C386.168 226.545 385.971 223.565 384.491 220.651C382.903 217.546 380.292 214.728 376.857 212.412C373.424 210.096 369.255 208.342 364.672 207.282C358.258 205.814 351.33 206.187 344.661 206.187C342.204 206.187 339.746 206.205 337.285 206.187C335.16 206.187 333.066 205.826 331.195 205.137C329.327 204.448 327.743 203.451 326.586 202.24C324.784 200.311 324.605 198.268 324.605 196.074V187.892C324.605 186.377 321.135 186.375 321.135 187.892H321.124Z" fill="#385868"/>
<path d="M287.072 73.6904C289.131 77.6156 295.362 79.6959 301.186 81.0049C311.697 83.3629 322.72 84.5022 333.789 84.3746C341.695 84.2804 349.693 83.5464 357.439 84.6494C365.186 85.7523 372.866 89.2575 374.5 94.5073" fill="#EF7679"/>
<path d="M279.542 56.5942C295.385 48.6105 314.586 43.0349 334.309 43.4451C354.033 43.8552 374.037 51.0559 382.513 63.1492C393.938 79.4385 383.427 99.5489 379.688 116.354C375.547 135.019 376.186 154.029 381.573 172.546C384.063 181.082 387.674 189.67 394.394 197.151C396.005 198.945 399.059 200.792 400.233 202.67C401.728 205.062 400.522 205.143 396.39 205.926C390.239 207.089 383.56 206.579 377.305 206.269C370.348 205.926 363.321 205.525 356.688 204.067C345.7 201.651 334.422 194.965 336.339 186.318" fill="#EF7679"/>
<path d="M397.286 205.922C391.136 207.086 384.456 206.575 378.201 206.267C371.244 205.922 364.217 205.524 357.584 204.065C346.596 201.647 335.319 194.963 337.233 186.316L333.665 178.201C339.665 185.855 351.168 191.597 363.68 193.944C373.3 195.75 383.366 195.811 393.252 194.729C393.897 195.548 394.58 196.356 395.294 197.153C396.904 198.947 399.958 200.792 401.129 202.67C402.627 205.06 401.421 205.139 397.286 205.922Z" fill="#DB6A72"/>
<path d="M264.874 106.959C281.553 105.782 277.461 91.3237 283.958 80.8318C288.117 74.1159 289.524 65.8378 283.204 59.9482C274.008 51.3796 255.577 49.4642 241.532 52.8731C222.367 57.5244 218.813 71.3212 218.041 83.6736C217.312 95.3096 221.138 106.787 225.73 117.92C228.422 124.426 230.085 131.099 231.548 137.772C234.636 151.873 236.816 166.425 231.713 180.251C226.609 194.078 212.891 207.209 192.921 211.629C209.404 213.385 226.915 212.657 241.738 207.468C256.56 202.279 268.159 192.103 268.855 180.793" fill="#EF7679"/>
<path d="M239.644 201.595C228.91 205.353 216.762 206.768 204.623 206.599C200.432 208.697 195.776 210.328 190.83 211.435C207.312 213.192 224.824 212.463 239.647 207.274C254.469 202.085 266.067 191.91 266.764 180.599L266.556 176.713C264.815 187.297 253.68 196.682 239.644 201.595Z" fill="#DB6A72"/>
<path d="M354.574 83.8997C358.657 88.755 360.901 94.1737 360.803 100.397C360.664 109.258 355.991 118.074 358.2 126.68C358.842 129.174 360.039 131.504 360.962 133.918C366.427 148.205 361.485 165.061 350.436 176.032C339.387 187.003 323.081 192.367 307.128 192.355H307.024C291.071 192.367 274.765 187.003 263.717 176.032C252.668 165.061 247.726 148.205 253.191 133.918C254.114 131.504 255.311 129.176 255.953 126.68C258.165 118.072 253.492 109.256 253.35 100.397C253.255 94.1756 255.496 87.9445 259.579 83.0891L269.951 72.2754L299.538 66.3877L317.755 68.8213" fill="#FFC6AD"/>
<path d="M350.442 169.744C339.393 180.715 323.087 186.079 307.134 186.067H307.03C291.077 186.079 274.771 180.715 263.722 169.744C256.395 162.467 251.757 152.599 251.057 142.612C250.189 154.32 255.105 166.461 263.722 175.02C274.771 185.99 291.077 191.354 307.03 191.342H307.134C323.087 191.354 339.393 185.99 350.442 175.02C359.062 166.461 363.963 154.32 363.108 142.614C362.408 152.599 357.77 162.467 350.442 169.744Z" fill="#E39493"/>
<path d="M358.151 89.3303C358.113 89.3303 358.073 89.3185 358.035 89.3126C357.457 89.2288 356.873 89.1556 356.28 89.0928C349.088 88.3176 341.695 88.9515 334.384 89.0378C321.239 89.1929 298.239 88.9593 290.166 80.4948C298.005 88.7003 261.035 102.656 253.442 105.465L252.864 101.787C252.803 101.394 252.754 100.986 253.063 100.662C253.352 100.415 253.737 100.227 254.173 100.118C267.322 95.9068 276.896 89.8209 282.78 80.6302C282.818 80.5694 282.855 80.5085 282.89 80.4477C283.058 80.1729 283.223 79.8962 283.376 79.6156L283.402 79.5724C284.816 77.2999 285.836 74.9237 286.441 72.4915L288.263 76.656C288.347 76.0673 288.399 75.4667 288.419 74.8779V74.825C288.436 74.1852 288.419 73.5493 288.347 72.9173C288.201 71.4017 287.764 69.9052 287.048 68.4662V67.5419L293.055 66.3467C292.609 68.0306 291.765 69.8067 292.699 71.3964C293.743 73.1744 296.626 74.0654 299.277 74.7209C313.114 78.138 327.757 79.8101 342.481 79.6548C343.788 79.6411 345.098 79.6116 346.411 79.5802L353.984 82.6831C354.108 82.8322 354.235 82.9853 354.357 83.1384L354.244 83.1266C354.409 83.3229 354.568 83.5191 354.724 83.7154C356.127 85.5086 357.275 87.3887 358.151 89.3303Z" fill="#E39493"/>
<path d="M287.667 74.2988C289.727 78.2239 295.958 80.3042 301.782 81.6132C312.293 83.9699 323.316 85.1078 334.385 84.979C342.291 84.8848 350.289 84.1508 358.035 85.2538C365.782 86.3567 373.462 89.8619 375.096 95.1117L381.134 64.1582L287.589 60.9121L287.667 74.2988Z" fill="#EF7679"/>
<path d="M387.429 207.639C384.618 207.639 381.802 207.492 379.043 207.347L377.198 207.252C369.619 206.878 362.812 206.45 356.24 205.005C350.167 203.673 344.474 201.186 340.587 198.181C335.932 194.584 333.966 190.431 334.905 186.176L337.765 186.467C336.744 191.099 339.917 194.69 342.759 196.886C346.313 199.634 351.55 201.912 357.13 203.139C363.394 204.513 370.021 204.931 377.409 205.298L379.266 205.394C384.893 205.688 390.711 205.983 396.017 204.988L396.639 204.872C397.813 204.652 399.14 204.403 399.418 204.216C399.418 204.15 399.418 203.871 398.917 203.062C398.316 202.101 397.052 201.064 395.829 200.062C394.863 199.308 393.975 198.509 393.174 197.673C389.528 193.615 384.21 186.614 380.162 172.749C374.717 154.124 374.075 135 378.265 116.227C379.084 112.543 380.203 108.787 381.385 104.807C385.593 90.6663 389.942 76.0452 381.212 63.5927C377.288 57.9936 370.611 53.2186 361.907 49.7841C353.481 46.49 343.991 44.6483 334.272 44.4205C311.914 43.9573 292.633 51.2168 280.41 57.3734L278.675 55.8033C291.279 49.4525 311.168 41.9849 334.35 42.4579C344.552 42.6644 354.519 44.589 363.353 48.0591C372.563 51.6937 379.639 56.763 383.817 62.7214C387.92 68.5737 389.618 75.4152 389.022 83.6384C388.493 90.8253 386.321 98.1182 384.225 105.172C383.048 109.126 381.938 112.861 381.128 116.496C376.987 135.047 377.62 153.946 383.002 172.35C386.958 185.91 392.107 192.704 395.641 196.635C396.373 197.391 397.177 198.113 398.053 198.794C399.409 199.905 400.808 201.055 401.575 202.279C402.153 203.221 402.624 204.208 402.02 205.056C401.34 206.01 399.773 206.304 397.393 206.748L396.78 206.864C393.718 207.443 390.578 207.639 387.429 207.639Z" fill="#385868"/>
<path d="M307.192 193.464H306.972C289.449 193.464 273.253 187.36 262.531 176.713C250.762 165.03 246.451 147.781 251.797 133.8C252.107 132.987 252.451 132.179 252.786 131.396C253.497 129.833 254.081 128.246 254.536 126.64C255.825 121.626 254.715 116.586 253.538 111.252C252.769 107.757 251.971 104.142 251.916 100.536C251.815 94.0952 254.096 87.7796 258.335 82.7319L260.848 83.7132C256.915 88.388 254.715 94.5073 254.81 100.525C254.865 103.994 255.646 107.541 256.401 110.971C257.557 116.227 258.757 121.659 257.387 126.988C256.914 128.663 256.306 130.319 255.568 131.949C255.241 132.718 254.903 133.519 254.602 134.304C249.452 147.771 253.599 164.375 264.922 175.618C275.098 185.721 290.426 191.515 306.978 191.515H307.195C323.752 191.515 339.078 185.723 349.254 175.618C360.577 164.375 364.727 147.771 359.574 134.304C359.285 133.519 358.935 132.72 358.608 131.949C357.871 130.319 357.263 128.663 356.789 126.988C355.419 121.661 356.619 116.227 357.775 110.971C358.53 107.541 359.314 103.994 359.366 100.525C359.455 94.6977 357.48 89.4635 353.325 84.5257L355.838 83.5444C360.253 88.7943 362.353 94.3523 362.257 100.538C362.202 104.144 361.404 107.759 360.635 111.254C359.458 116.588 358.348 121.628 359.638 126.642C360.091 128.248 360.676 129.835 361.387 131.398C361.719 132.183 362.064 132.989 362.376 133.802C367.725 147.785 363.411 165.032 351.645 176.717C340.923 187.36 324.73 193.464 307.192 193.464Z" fill="#385868"/>
<path d="M283.379 81.8389C277.471 91.3769 265.532 99.7178 250.874 102.032C249.557 102.241 248.222 102.399 246.878 102.505C241.638 98.8876 232.18 91.6124 232.614 86.4666C233.212 79.368 250.831 68.0087 255.027 63.952C256.949 62.0876 259.188 57.2695 261.047 52.6025C261.484 52.6477 261.915 52.6987 262.351 52.7517C270.35 53.7644 277.772 56.4335 282.624 60.9552C288.931 66.8527 287.528 75.1308 283.379 81.8389Z" fill="#EF7679"/>
<path d="M208.651 213.474C203.308 213.466 197.974 213.176 192.698 212.607L186.747 211.973L192.475 210.705C210.284 206.762 224.783 195.004 230.312 180.022C235.537 165.86 232.952 150.866 230.118 137.925C228.724 131.563 227.062 124.776 224.335 118.186C219.879 107.352 215.851 95.6771 216.603 83.6328C217.363 71.4649 220.833 56.8576 241.051 51.9492C248.584 50.1513 256.705 49.8116 264.505 50.9679C272.96 52.2338 279.831 55.1403 284.379 59.3775C287.514 62.2998 289.055 65.907 288.963 70.101C288.885 73.6336 287.615 77.4743 285.299 81.2189C281.952 86.6762 276.8 91.538 270.242 95.4278C263.302 99.4923 255.319 101.942 247.141 102.517L246.852 100.564C261.671 99.5237 275.719 91.6322 282.642 80.4594C284.819 76.9444 286.007 73.3529 286.083 70.0735C286.166 66.3132 284.81 63.1044 282.055 60.5335C277.931 56.6908 271.645 54.0452 263.895 52.8795C256.622 51.802 249.051 52.1202 242.029 53.7979C233.712 55.8155 227.894 59.7288 224.236 65.7578C220.622 71.7201 219.798 78.8618 219.494 83.7172C218.757 95.4926 222.73 106.985 227.131 117.658C229.89 124.344 231.573 131.211 232.978 137.637C235.852 150.766 238.472 165.988 233.117 180.499C227.912 194.63 214.954 206.032 198.663 211.156C210.9 212.014 226.744 211.623 241.074 206.605C256.435 201.228 266.772 191.083 267.411 180.762L270.303 180.844C269.623 191.858 258.673 202.654 242.405 208.35C231.249 212.253 219.272 213.474 208.651 213.474Z" fill="#385868"/>
<path d="M373.086 94.7077C371.441 89.4342 363.469 86.51 357.142 85.6072C351.587 84.8222 345.7 85.0087 340.006 85.1951C337.982 85.2618 335.883 85.3305 333.815 85.3541C322.581 85.4895 311.394 84.3335 300.729 81.9353C292.439 80.0728 287.526 77.4842 285.693 74.0203L288.417 73.3608C289.938 76.2576 294.134 78.3909 301.626 80.0728C311.981 82.4012 322.842 83.524 333.749 83.3935C335.773 83.3699 337.846 83.3012 339.85 83.2365C345.726 83.0402 351.801 82.844 357.72 83.6898C361.879 84.2715 365.785 85.4915 369.142 87.2558C372.731 89.1929 375.067 91.6304 375.9 94.3034L373.086 94.7077Z" fill="#385868"/>
<path d="M279.392 116.29C279.473 114.276 281.798 112.6 284.828 112.6C287.859 112.6 290.187 114.276 290.265 116.29C290.325 117.803 293.795 117.809 293.735 116.29C293.604 113.004 289.77 110.245 284.828 110.245C279.887 110.245 276.052 113.006 275.922 116.29C275.861 117.805 279.331 117.805 279.392 116.29Z" fill="#385868"/>
<path d="M320.933 116.29C321.014 114.276 323.339 112.6 326.369 112.6C329.399 112.6 331.727 114.276 331.805 116.29C331.866 117.803 335.336 117.809 335.275 116.29C335.145 113.004 331.311 110.245 326.369 110.245C321.427 110.245 317.593 113.006 317.463 116.29C317.402 117.805 320.872 117.805 320.933 116.29Z" fill="#385868"/>
<path d="M311.038 137.789C310.957 139.803 308.632 141.479 305.601 141.479C302.571 141.479 300.243 139.803 300.165 137.789C300.104 136.276 296.634 136.27 296.695 137.789C296.825 141.075 300.66 143.834 305.601 143.834C310.543 143.834 314.377 141.073 314.508 137.789C314.568 136.274 311.098 136.274 311.038 137.789Z" fill="#385868"/>
<path d="M381.958 75.119C381.484 71.0408 378.904 67.1784 375.437 63.8323C366.762 55.4521 352.403 50.0943 337.424 48.8344C322.445 47.5744 307.013 50.2513 294.107 55.562C293.275 55.9055 292.398 56.3 292.046 56.9182C291.6 57.7032 292.129 58.5628 292.563 59.3478C293.997 61.9696 294.37 64.8041 293.648 67.5572C293.199 69.2431 292.355 71.0231 293.289 72.6148C294.333 74.3928 297.216 75.2858 299.867 75.9413C313.707 79.3573 328.347 81.0289 343.071 80.8732C350.046 80.7967 357.127 80.3178 363.92 81.3874C370.712 82.457 377.375 85.4951 379.185 90.0678C380.275 89.5574 381.16 88.8724 381.764 88.0737C382.371 87.2749 382.675 86.3872 382.655 85.4892" fill="#DB6A72"/>
<path d="M223.991 98.7544C220.558 89.3884 220.938 79.5654 225.09 70.3345C226.825 66.5055 229.326 62.6805 233.733 60.0212C238.14 57.3619 244.004 56.1157 249.845 55.7232C254.344 55.4229 258.968 55.6035 263.233 56.6181C274.458 59.2872 281.474 67.8185 280.36 75.8513C279.247 83.884 270.916 91.0238 260.246 94.5839C254.535 96.4896 248.237 97.4748 242.506 99.353C236.775 101.231 231.362 104.33 230.008 108.552" fill="#DB6A72"/>
<path d="M361.19 52.6086C362.997 53.4705 364.715 54.4175 366.329 55.4425C367.818 56.4046 369.217 57.4271 370.524 58.5041C372.713 60.3342 374.593 62.3272 376.12 64.4448C376.765 65.3476 377.276 66.1856 377.69 66.9294C377.886 67.3043 378.069 67.6516 378.228 67.9755L378.609 68.8704L378.76 69.2511L378.867 69.5907C378.93 69.8026 378.977 69.9832 379.008 70.1284C379.072 70.4208 379.069 70.5817 379.008 70.5955C378.948 70.6092 378.794 70.4797 378.595 70.2187C378.497 70.0891 378.381 69.9263 378.254 69.732L378.051 69.4199L377.808 69.0667L377.256 68.2365L376.565 67.2552C376.059 66.5605 375.46 65.7794 374.749 64.9374C373.081 62.9692 371.146 61.1116 368.966 59.3892C367.67 58.385 366.297 57.4279 364.854 56.5219C363.295 55.5581 361.647 54.6622 359.921 53.8391C358.189 53.0142 356.381 52.2632 354.513 51.59L353.84 51.3408L353.16 51.1112C352.709 50.962 352.267 50.803 351.818 50.6617C350.919 50.387 350.046 50.1044 349.167 49.8767C347.519 49.4179 345.839 49.0155 344.133 48.6717L342.941 48.4538C342.551 48.3812 342.169 48.3067 341.785 48.2576C341.024 48.1516 340.301 48.0182 339.598 47.9534C338.896 47.8886 338.231 47.7826 337.592 47.7571L336.663 47.6865L336.218 47.6512L335.787 47.6374L334.208 47.5785C333.726 47.5785 333.28 47.5785 332.878 47.5785H332.3L331.803 47.5982C331.493 47.608 331.224 47.6139 331.013 47.6119C330.582 47.6119 330.345 47.5844 330.331 47.5334C330.316 47.4824 330.522 47.4078 330.935 47.3136C331.143 47.2665 331.401 47.2135 331.71 47.1566L332.21 47.0663L332.789 47.0015C333.196 46.957 333.653 46.9113 334.156 46.8642C334.66 46.8367 335.206 46.819 335.799 46.7974L336.25 46.7817H336.715L337.69 46.7974C338.364 46.7974 339.064 46.8583 339.804 46.9034C340.544 46.9486 341.31 47.0428 342.117 47.1232C342.519 47.1605 342.924 47.2233 343.334 47.2842L344.592 47.4706C346.394 47.7744 348.169 48.1506 349.907 48.5971C350.832 48.8208 351.749 49.0976 352.695 49.3704C353.163 49.5097 353.629 49.6667 354.103 49.8178L354.814 50.0494L355.52 50.3006C357.486 50.9806 359.38 51.7517 361.19 52.6086Z" fill="white"/>
<path d="M352.171 113.032C351.737 115.881 351.916 118.452 352.402 120.281C352.636 121.198 352.923 121.928 353.09 122.44C353.258 122.952 353.342 123.264 353.203 123.312C353.064 123.359 352.746 123.133 352.295 122.668C351.702 121.994 351.228 121.277 350.881 120.529C349.956 118.641 349.51 115.856 349.964 112.875C350.173 111.486 350.499 110.105 350.939 108.742C351.332 107.491 351.743 106.386 352.096 105.456C352.827 103.605 353.354 102.469 353.657 102.499C353.961 102.528 353.975 103.741 353.634 105.656C353.469 106.614 353.215 107.745 352.94 108.993C352.665 110.241 352.367 111.609 352.171 113.032Z" fill="white"/>
<path d="M353.646 90.7353C354.212 91.7097 354.525 92.7438 354.568 93.791C354.568 94.5937 354.368 95.0902 354.071 95.1138C353.773 95.1373 353.42 94.6899 353.027 93.9833C352.633 93.2768 352.159 92.3112 351.581 91.2809C351.292 90.7667 350.979 90.2839 350.699 89.8423L349.912 88.6648C349.458 87.9897 349.198 87.5245 349.432 87.3832C349.667 87.2419 350.352 87.4774 351.196 88.0564C351.682 88.3979 352.119 88.7729 352.492 89.175C352.946 89.6694 353.333 90.1919 353.646 90.7353Z" fill="white"/>
<path d="M223.812 95.7732C223.486 93.3357 223.39 90.8868 223.523 88.4411C223.633 87.3146 223.702 86.243 223.902 85.25C223.991 84.7515 224.055 84.2687 224.162 83.8095L224.492 82.4886C224.677 81.6447 224.966 80.897 225.183 80.2376C225.298 79.9079 225.397 79.5998 225.507 79.3211L225.842 78.5616C226.25 77.649 226.495 77.1524 226.545 77.1623C226.594 77.1721 226.44 77.6882 226.12 78.6106L225.848 79.378C225.758 79.6606 225.683 79.9668 225.587 80.2984C225.408 80.9598 225.159 81.7075 225.009 82.5475L224.72 83.8624C224.63 84.3197 224.581 84.8005 224.506 85.2931C224.332 86.2744 224.289 87.344 224.197 88.4607C224.104 90.8837 224.219 93.3083 224.541 95.7222C224.902 98.2932 225.492 100.723 226.125 102.919L226.626 104.52C226.704 104.781 226.787 105.035 226.883 105.284L227.146 106.022C227.322 106.505 227.476 106.976 227.655 107.421L228.167 108.705C228.476 109.527 228.817 110.257 229.092 110.905L229.48 111.805L229.827 112.559C230.237 113.466 230.443 113.974 230.405 113.986C230.367 113.998 230.061 113.511 229.566 112.612L229.159 111.87C229.014 111.597 228.869 111.299 228.71 110.979C228.398 110.337 228.022 109.605 227.678 108.793L227.12 107.511C226.926 107.066 226.759 106.595 226.568 106.112L226.279 105.372C226.18 105.123 226.088 104.868 225.989 104.607L225.457 103.001C224.716 100.614 224.167 98.2011 223.812 95.7732Z" fill="#516D7B"/>
<path d="M226.892 85.3854C227.16 84.0634 227.539 82.753 228.025 81.4603C228.265 80.8715 228.488 80.3004 228.745 79.7823C228.873 79.5232 228.982 79.2681 229.11 79.0306L229.483 78.3457C229.711 77.908 229.966 77.5234 230.177 77.1819C230.284 77.0131 230.382 76.8541 230.466 76.7109L230.755 76.3184C231.096 75.8532 231.307 75.604 231.354 75.6177C231.463 75.6511 230.813 76.707 229.971 78.4595L229.648 79.1484C229.535 79.3878 229.439 79.641 229.327 79.9C229.095 80.4182 228.899 80.9795 228.679 81.5702C228.274 82.7477 227.895 84.0666 227.615 85.4561C227.334 86.8456 227.21 88.1801 227.146 89.3949C227.146 90.0033 227.106 90.5725 227.129 91.12C227.129 91.3909 227.129 91.6519 227.149 91.9051L227.195 92.6273C227.331 94.4662 227.554 95.6025 227.435 95.6143C227.386 95.6143 227.279 95.3415 227.126 94.8293L227.005 94.4034C226.964 94.2483 226.932 94.0776 226.895 93.8951C226.822 93.5301 226.724 93.1101 226.672 92.6489L226.577 91.9207C226.545 91.6676 226.536 91.4026 226.513 91.1357C226.464 90.5882 226.467 90.0033 226.461 89.389C226.493 88.05 226.636 86.7133 226.892 85.3854Z" fill="#516D7B"/>
<path d="M269.383 60.3725C271.478 61.7788 273.298 63.3618 274.799 65.0826C275.502 65.8676 276.077 66.6527 276.598 67.3847C277.118 68.1167 277.529 68.8272 277.876 69.4788C278.436 70.5042 278.898 71.553 279.258 72.6189C279.507 73.3744 279.591 73.7964 279.547 73.7964C279.504 73.7964 279.313 73.4039 278.969 72.662C278.625 71.9202 278.131 70.8702 277.379 69.6004C277.006 68.9646 276.549 68.2816 276.034 67.5574C275.519 66.8332 274.912 66.0796 274.207 65.3142C272.703 63.6456 270.906 62.1068 268.857 60.7316C267.786 60.0298 266.646 59.3788 265.445 58.7828C264.323 58.2287 263.146 57.7277 261.923 57.2834L261.056 56.9772C260.766 56.8791 260.477 56.7947 260.188 56.7025C259.61 56.5062 259.046 56.3767 258.502 56.2216C257.959 56.0666 257.412 55.9547 256.889 55.8448C256.365 55.7349 255.862 55.627 255.371 55.5583C253.828 55.2957 252.255 55.125 250.669 55.048C250.38 55.0264 250.137 55.0186 249.92 55.0147L249.37 54.9931C249.081 54.9774 248.914 54.9617 248.914 54.946C248.914 54.9303 249.07 54.9106 249.368 54.893L249.923 54.8655C250.175 54.8525 250.428 54.8486 250.68 54.8537C252.298 54.8563 253.91 54.9774 255.489 55.2148C255.995 55.2757 256.507 55.3856 257.051 55.4759C257.594 55.5661 258.141 55.7035 258.713 55.833C259.286 55.9626 259.87 56.1157 260.448 56.3001C260.737 56.3885 261.044 56.4728 261.342 56.571L262.241 56.8752C263.503 57.3183 264.715 57.8227 265.87 58.3844C267.11 58.989 268.284 59.6534 269.383 60.3725Z" fill="#516D7B"/>
<path d="M272.594 67.4648C273.505 68.6954 274.22 69.9891 274.725 71.3232C274.935 71.9055 275.099 72.4953 275.216 73.0895C275.266 73.3702 275.338 73.6371 275.361 73.8981L275.419 74.6498C275.456 75.0792 275.456 75.5098 275.419 75.9392C275.419 76.1354 275.401 76.3062 275.381 76.4671L275.294 76.9087C275.185 77.4386 275.101 77.7251 275.049 77.7212C274.997 77.7173 274.985 77.4209 275.008 76.8949L275.031 76.4573C275.031 76.2964 275.017 76.1237 275.008 75.9372C274.982 75.5643 275.008 75.1384 274.91 74.6733L274.806 73.9413C274.768 73.6881 274.681 73.4271 274.621 73.1563C274.514 72.6107 274.285 72.0415 274.077 71.441C273.051 68.841 271.216 66.4205 268.696 64.3424C268.097 63.8773 267.539 63.4219 266.961 63.0432C266.672 62.8469 266.406 62.6507 266.125 62.4838L265.307 62.001C264.801 61.6792 264.28 61.4417 263.861 61.216C263.641 61.1042 263.442 60.9923 263.251 60.9L262.713 60.6586C262.068 60.3643 261.721 60.1857 261.744 60.1543C261.767 60.1229 262.164 60.2446 262.86 60.4918L263.439 60.6999C263.647 60.7823 263.858 60.8824 264.095 60.9844C264.634 61.2123 265.152 61.4613 265.648 61.7302L266.515 62.1993C266.805 62.3641 267.094 62.5604 267.4 62.7507C268.046 63.1611 268.659 63.5948 269.236 64.05C270.532 65.1037 271.657 66.2484 272.594 67.4648Z" fill="#516D7B"/>
<path d="M241.94 165.487C241.897 167.522 241.729 169.508 241.457 171.418C241.185 173.328 240.772 175.161 240.3 176.895L239.925 178.177C239.794 178.597 239.635 179.009 239.505 179.417C239.242 180.234 238.901 181.013 238.606 181.772C238.45 182.149 238.273 182.516 238.112 182.879C237.95 183.242 237.799 183.6 237.611 183.941L237.091 184.952L236.836 185.441L236.564 185.912C236.2 186.532 235.876 187.126 235.503 187.678C235.13 188.229 234.827 188.751 234.465 189.222C234.104 189.693 233.806 190.141 233.494 190.543L232.609 191.628C232.473 191.791 232.351 191.946 232.227 192.088L231.869 192.48L231.29 193.095C231.148 193.27 230.977 193.434 230.781 193.583C230.878 193.394 231.006 193.212 231.163 193.042L231.672 192.406L232.002 192.001C232.114 191.856 232.227 191.699 232.351 191.532L233.173 190.431C233.462 190.025 233.751 189.578 234.083 189.101C234.416 188.624 234.717 188.1 235.061 187.552C235.405 187.005 235.72 186.41 236.067 185.786L236.327 185.315L236.567 184.828L237.062 183.821C237.238 183.48 237.374 183.123 237.536 182.764C237.698 182.404 237.86 182.037 238.007 181.663C238.297 180.907 238.615 180.134 238.875 179.321C239.005 178.917 239.164 178.507 239.274 178.089L239.632 176.815C240.081 175.092 240.5 173.282 240.734 171.375C240.968 169.467 241.154 167.507 241.197 165.487C241.232 161.685 240.942 157.884 240.329 154.104C239.783 150.615 239.086 147.488 238.45 144.868C237.814 142.248 237.25 140.131 236.868 138.667C236.68 137.935 236.533 137.366 236.443 136.979C236.377 136.786 236.344 136.588 236.342 136.39C236.455 136.575 236.537 136.768 236.588 136.965C236.724 137.346 236.917 137.909 237.149 138.635C237.617 140.088 238.259 142.195 238.962 144.813C239.664 147.432 240.407 150.56 241.003 154.061C241.66 157.853 241.973 161.669 241.94 165.487Z" fill="#516D7B"/>
<path d="M249.382 197.238C250.99 195.618 252.382 193.904 253.54 192.116L254.263 190.895L254.439 190.6C254.494 190.502 254.538 190.404 254.587 190.304L254.876 189.715C255.055 189.333 255.258 188.97 255.399 188.61L255.796 187.574C256.085 186.919 256.209 186.306 256.374 185.774C256.449 185.508 256.53 185.26 256.585 185.031L256.709 184.401C256.865 183.643 256.975 183.223 257.024 183.223C257.074 183.223 257.062 183.651 256.996 184.42L256.935 185.062C256.9 185.296 256.837 185.547 256.782 185.818C256.669 186.434 256.509 187.047 256.304 187.653L255.949 188.71C255.819 189.077 255.628 189.448 255.46 189.839L255.191 190.428C255.145 190.528 255.104 190.624 255.049 190.73L254.879 191.032L254.173 192.298C251.928 195.981 248.568 199.302 244.31 202.048L242.847 202.943L242.494 203.159C242.375 203.23 242.248 203.292 242.127 203.355L241.407 203.748C240.93 203.995 240.49 204.248 240.03 204.462L238.703 205.068C237.944 205.416 237.16 205.738 236.352 206.03C235.999 206.164 235.676 206.293 235.366 206.399L234.499 206.668C233.463 206.988 232.885 207.149 232.862 207.117C232.839 207.086 233.38 206.866 234.366 206.495L235.187 206.189C235.476 206.071 235.794 205.93 236.132 205.797C236.803 205.502 237.599 205.208 238.399 204.784L239.681 204.16C240.123 203.942 240.548 203.683 241.011 203.432L241.708 203.039C241.823 202.972 241.948 202.91 242.063 202.843L242.404 202.625L243.824 201.728C245.871 200.347 247.731 198.845 249.382 197.238Z" fill="#516D7B"/>
<path d="M252.644 182.738C252.832 181.922 252.951 181.139 253.023 180.424C253.049 180.067 253.084 179.726 253.087 179.408C253.09 179.09 253.101 178.792 253.087 178.519C253.087 177.431 253.006 176.752 253.116 176.752C253.226 176.752 253.46 177.408 253.607 178.519C253.642 178.794 253.677 179.096 253.685 179.422C253.694 179.747 253.685 180.095 253.685 180.462C253.619 182.053 253.246 183.632 252.578 185.158C252.416 185.507 252.265 185.841 252.095 186.139C251.924 186.438 251.765 186.728 251.606 186.981C250.958 187.998 250.412 188.575 250.331 188.551C250.25 188.528 250.62 187.89 251.12 186.86C251.248 186.603 251.386 186.32 251.517 186.014C251.647 185.708 251.785 185.38 251.924 185.033C252.199 184.324 252.439 183.555 252.644 182.738Z" fill="#516D7B"/>
<path d="M316.219 79.0502C318.758 79.4407 321.326 79.7433 323.911 79.9569C325.105 80.0393 326.239 80.1296 327.309 80.1669C327.841 80.1884 328.355 80.2218 328.853 80.2336L330.278 80.2669C331.186 80.2983 332.013 80.2846 332.733 80.2905H333.743L334.59 80.2768C335.61 80.265 336.177 80.2768 336.18 80.3082C336.183 80.3396 335.625 80.3984 334.604 80.4711L333.757 80.528C333.448 80.5437 333.109 80.5535 332.745 80.5653C332.019 80.5868 331.189 80.6261 330.273 80.6163H328.827C328.327 80.6163 327.806 80.5908 327.268 80.577C326.19 80.5574 325.042 80.4809 323.833 80.4102C318.588 80.0497 313.432 79.2372 308.487 77.9923C307.356 77.694 306.275 77.4193 305.306 77.1151C304.815 76.9659 304.332 76.8305 303.881 76.6833L302.588 76.2535C301.758 75.9886 301.041 75.704 300.402 75.4685C300.084 75.3488 299.786 75.2389 299.517 75.1309L298.791 74.8248C297.924 74.4558 297.458 74.236 297.484 74.2066C297.51 74.1771 298.025 74.3381 298.93 74.654L299.682 74.919L300.59 75.2173C301.244 75.4292 301.972 75.6883 302.808 75.9297L304.109 76.3222C304.563 76.4596 305.046 76.5832 305.538 76.7147C306.521 77.0012 307.596 77.2583 308.718 77.541C311.179 78.1301 313.683 78.6339 316.219 79.0502Z" fill="#516D7B"/>
<path d="M330.18 78.6596C331.985 78.7813 333.711 78.8421 335.284 78.8676C336.071 78.8676 336.817 78.8833 337.517 78.8676C338.216 78.8519 338.867 78.848 339.463 78.8303C341.842 78.7597 343.314 78.6576 343.332 78.7342C343.349 78.8107 341.886 79.0207 339.5 79.1836C338.902 79.2228 338.245 79.2621 337.54 79.2817C336.834 79.3013 336.076 79.319 335.281 79.3269C333.691 79.3269 331.939 79.2797 330.108 79.1561C328.278 79.0325 326.551 78.8323 324.993 78.6144C324.215 78.4967 323.478 78.3887 322.795 78.2612C322.113 78.1336 321.477 78.0159 320.904 77.8961C318.608 77.4094 317.252 76.9875 317.284 76.9306C317.316 76.8736 318.73 77.1602 321.043 77.5547C321.621 77.6528 322.252 77.7509 322.937 77.8569C323.622 77.9629 324.354 78.0531 325.123 78.1611C326.67 78.3534 328.376 78.53 330.18 78.6596Z" fill="#516D7B"/>
<path d="M303.951 52.1885C305.466 51.6058 307.027 51.0779 308.623 50.6067C309.364 50.3987 310.069 50.1965 310.74 50.0356C311.076 49.9532 311.396 49.8688 311.712 49.7981L312.617 49.6019C314.93 49.1093 316.413 48.9365 316.434 48.9954C316.454 49.0543 315.034 49.3644 312.787 49.9375L311.92 50.1651C311.613 50.2436 311.301 50.3378 310.974 50.4281C310.318 50.6047 309.636 50.8206 308.91 51.0345C307.464 51.4859 305.917 52.0158 304.326 52.6301C302.736 53.2444 301.282 53.8901 299.989 54.5024C299.347 54.8164 298.728 55.1069 298.17 55.4012C297.881 55.5465 297.615 55.6819 297.358 55.8212L296.623 56.2137C294.755 57.2382 293.659 57.9251 293.578 57.8702C293.497 57.8152 294.483 57.0498 296.285 55.9449L296.999 55.517C297.248 55.3698 297.52 55.2246 297.794 55.0696C298.341 54.7575 298.951 54.4494 299.593 54.1216C300.995 53.4259 302.45 52.7806 303.951 52.1885Z" fill="#516D7B"/>
<path d="M311.474 51.6293C312.417 51.3465 313.383 51.0976 314.366 50.8835C315.173 50.7106 315.991 50.5658 316.818 50.4498C318.232 50.2535 319.131 50.226 319.131 50.2888C319.175 50.44 315.693 50.8776 311.752 52.0885C307.811 53.2994 304.977 54.7242 304.841 54.6026C304.783 54.5535 305.419 54.1217 306.576 53.5388C307.258 53.1991 307.964 52.8834 308.693 52.5929C309.595 52.2385 310.523 51.9168 311.474 51.6293Z" fill="#516D7B"/>
<path d="M376.14 109.346C374.581 114.286 373.928 119.338 374.194 124.387C374.298 126.324 374.514 127.889 374.665 128.97C374.815 130.051 374.922 130.65 374.87 130.654C374.783 130.519 374.728 130.376 374.705 130.23C374.624 129.949 374.506 129.533 374.381 128.995C374.144 127.918 373.847 126.352 373.676 124.403C373.248 119.318 373.832 114.218 375.411 109.238C375.888 107.784 376.409 106.371 377.001 105.027C377.594 103.682 378.187 102.395 378.736 101.166C379.286 99.9377 379.783 98.768 380.182 97.6611C380.393 97.1096 380.546 96.5719 380.714 96.0557C380.882 95.5396 381.003 95.0411 381.084 94.5603C381.423 93.0518 381.495 91.5212 381.301 90.0012C381.249 89.4615 381.133 89.0474 381.079 88.7648C381.029 88.6208 381.012 88.4726 381.029 88.3252C381.125 88.4569 381.191 88.5978 381.226 88.7432C381.388 89.1485 381.509 89.561 381.587 89.9777C381.897 91.5122 381.9 93.0679 381.602 94.6034C381.535 95.0921 381.391 95.5945 381.275 96.1244C381.159 96.6543 380.986 97.196 380.778 97.7534C380.408 98.8759 379.928 100.057 379.396 101.286L377.707 105.152C377.123 106.504 376.614 107.904 376.14 109.346Z" fill="#516D7B"/>
<path d="M379.731 186.294C380.992 188.681 382.452 191.017 384.109 193.289L385.265 194.804C385.627 195.301 386.049 195.758 386.422 196.211C386.795 196.665 387.157 197.104 387.533 197.514L388.62 198.692C389.291 199.451 389.985 200.099 390.56 200.684C390.849 200.974 391.118 201.249 391.373 201.494L392.09 202.16C392.957 202.962 393.405 203.416 393.368 203.437C393.33 203.459 392.79 203.045 391.864 202.277L391.092 201.636C390.817 201.396 390.537 201.129 390.225 200.851C389.615 200.278 388.886 199.64 388.183 198.888L387.05 197.72C386.659 197.312 386.295 196.873 385.893 196.423C385.491 195.974 385.072 195.514 384.696 195.018L383.499 193.501C380.043 188.948 377.53 184.093 376.03 179.074L375.567 177.38C375.402 176.833 375.321 176.293 375.206 175.775C375.09 175.257 374.983 174.756 374.916 174.272L374.726 172.88C374.581 171.995 374.561 171.188 374.512 170.482C374.491 170.129 374.465 169.801 374.459 169.501V168.672C374.48 167.677 374.514 167.128 374.564 167.128C374.613 167.128 374.676 167.677 374.746 168.667L374.798 169.491C374.824 169.791 374.873 170.119 374.911 170.472C375 171.173 375.058 171.973 375.232 172.851L375.469 174.225C375.553 174.703 375.688 175.206 375.801 175.712C375.914 176.219 376.021 176.76 376.197 177.302L376.689 178.978C377.493 181.454 378.511 183.897 379.731 186.294Z" fill="#516D7B"/>
<path d="M373.636 176.839C374.035 178.163 374.48 179.415 374.917 180.55C375.145 181.115 375.353 181.653 375.576 182.153C375.798 182.654 375.998 183.119 376.192 183.543C376.97 185.236 377.51 186.275 377.406 186.304C377.302 186.334 376.608 185.333 375.697 183.657C375.472 183.237 375.229 182.777 374.992 182.283C374.755 181.788 374.512 181.247 374.263 180.679C373.786 179.543 373.317 178.281 372.915 176.951C372.514 175.62 372.227 174.329 372.013 173.155C371.918 172.566 371.82 172.011 371.765 171.487C371.71 170.963 371.655 170.476 371.62 170.029C371.496 168.245 371.582 167.14 371.672 167.138C371.762 167.136 371.883 168.235 372.141 170.001C372.207 170.443 372.276 170.925 372.372 171.444C372.467 171.962 372.571 172.513 372.687 173.094C372.933 174.242 373.245 175.512 373.636 176.839Z" fill="#516D7B"/>
<path d="M350.193 197.722C351.665 198.466 353.23 199.122 354.869 199.685C355.638 199.926 356.358 200.172 357.067 200.348C357.419 200.441 357.752 200.545 358.085 200.617L359.042 200.831C359.646 200.98 360.216 201.065 360.707 201.159C360.956 201.204 361.184 201.251 361.395 201.285L361.974 201.369C362.679 201.475 363.07 201.549 363.064 201.585C363.058 201.62 362.656 201.61 361.928 201.561L361.323 201.518C361.103 201.497 360.866 201.463 360.612 201.432C360.028 201.365 359.447 201.279 358.877 201.171L357.885 200.974C357.541 200.908 357.194 200.814 356.83 200.727C356.095 200.564 355.346 200.335 354.551 200.091C351.13 198.998 348.082 197.43 345.61 195.487C345.061 195.032 344.523 194.606 344.095 194.168C343.875 193.952 343.65 193.752 343.462 193.546L342.93 192.957C342.626 192.616 342.348 192.263 342.097 191.902C341.984 191.743 341.871 191.597 341.782 191.46L341.559 191.067C341.296 190.604 341.174 190.343 341.221 190.331C341.267 190.32 341.481 190.553 341.819 190.985L342.108 191.346C342.215 191.476 342.343 191.613 342.473 191.762C342.739 192.059 343.01 192.408 343.386 192.763L343.947 193.33C344.144 193.527 344.378 193.723 344.604 193.919C345.043 194.335 345.584 194.741 346.136 195.177C347.38 196.103 348.736 196.955 350.193 197.722Z" fill="#516D7B"/>
<path d="M360.875 198.68C362.699 199.196 364.564 199.638 366.467 200.003C367.349 200.158 368.185 200.315 368.98 200.421C369.376 200.478 369.758 200.54 370.137 200.586L371.204 200.711C371.883 200.801 372.505 200.845 373.048 200.907L373.806 200.98L374.448 201.027C375.217 201.086 375.645 201.135 375.645 201.17C375.645 201.206 375.211 201.221 374.431 201.221H373.78C373.543 201.221 373.286 201.202 373.008 201.19C372.456 201.161 371.822 201.143 371.128 201.074L370.038 200.978C369.659 200.943 369.272 200.888 368.864 200.839C368.052 200.748 367.199 200.603 366.297 200.46C362.396 199.783 358.668 198.709 355.245 197.271C354.467 196.931 353.721 196.613 353.062 196.28C352.729 196.115 352.399 195.964 352.101 195.803L351.234 195.338C350.682 195.047 350.222 194.749 349.806 194.502C349.6 194.374 349.406 194.258 349.227 194.146L348.773 193.83C348.232 193.448 347.949 193.226 347.987 193.202C348.024 193.179 348.371 193.351 348.97 193.687L349.464 193.968L350.069 194.288C350.505 194.515 350.982 194.79 351.549 195.057L352.417 195.491C352.72 195.642 353.053 195.783 353.388 195.938C354.053 196.254 354.799 196.552 355.574 196.876C357.286 197.549 359.056 198.152 360.875 198.68Z" fill="#516D7B"/>
<path d="M319.482 161.519C319.386 166.74 313.143 171.093 305.376 171.093C297.609 171.093 291.366 166.74 291.271 161.519C291.242 160.004 287.772 160 287.801 161.519C287.835 163.962 288.958 166.34 291.022 168.341C293.087 170.341 295.996 171.871 299.367 172.727C306.169 174.447 314.173 172.979 318.808 169.195C321.454 167.038 322.917 164.326 322.952 161.519C322.98 160.004 319.511 160.002 319.482 161.519Z" fill="#385868"/>
<path d="M266.192 208.754C266.845 213.237 270.396 217.232 275.506 220.058C281.289 223.257 288.501 224.8 295.811 225.457C310.407 226.768 326.817 225.671 339.136 219.766C345.252 216.84 350.124 212.913 352.845 208.159C353.655 206.746 350.3 206.134 349.499 207.533C344.873 215.617 333.214 220.632 321.182 222.498C314.222 223.577 306.969 223.748 299.865 223.379C293.049 223.026 286.072 222.021 280.239 219.491C274.771 217.119 270.312 213.229 269.659 208.744C269.442 207.251 265.969 207.235 266.189 208.744L266.192 208.754Z" fill="#385868"/>
<path d="M204.692 242.451H417.641C419.809 242.451 421.888 243.036 423.421 244.076C424.953 245.116 425.815 246.527 425.815 247.999V340.84C425.815 341.72 425.3 342.565 424.384 343.188C423.467 343.81 422.221 344.159 420.925 344.159H201.407C200.111 344.159 198.867 343.81 197.95 343.188C197.033 342.565 196.518 341.72 196.518 340.84V247.999C196.518 246.527 197.379 245.116 198.912 244.076C200.445 243.036 202.524 242.451 204.692 242.451Z" fill="#256075"/>
<path d="M417.513 242.228H206.083C201.147 242.228 197.148 244.791 197.148 247.95V250.971C197.148 247.811 201.147 245.248 206.083 245.248H417.513C422.449 245.248 426.448 247.811 426.448 250.971V247.95C426.448 244.789 422.449 242.228 417.513 242.228Z" fill="#347888"/>
<path d="M427.938 345.138H195.697V247.848C195.699 246.156 196.689 244.535 198.451 243.34C200.212 242.145 202.6 241.472 205.092 241.47H418.546C421.035 241.472 423.424 242.145 425.188 243.34C426.949 244.535 427.938 246.156 427.941 247.848L427.938 345.138ZM198.588 343.176H425.046V247.848C425.043 246.678 424.358 245.556 423.14 244.728C421.92 243.899 420.266 243.434 418.543 243.432H205.092C203.367 243.434 201.714 243.899 200.495 244.728C199.275 245.556 198.59 246.678 198.588 247.848V343.176Z" fill="#385868"/>
<path d="M148.413 333.487C144.622 333.479 140.921 332.71 137.775 331.275C134.629 329.84 132.18 327.805 130.737 325.427C129.294 323.048 128.922 320.434 129.668 317.912C130.414 315.39 132.245 313.074 134.929 311.257C137.612 309.441 141.029 308.205 144.747 307.707C148.465 307.208 152.317 307.467 155.818 308.454C159.318 309.439 162.31 311.108 164.414 313.247C166.519 315.386 167.642 317.9 167.642 320.473C167.629 323.929 165.597 327.238 161.992 329.679C158.387 332.119 153.504 333.489 148.413 333.487ZM148.413 310.994C145.652 311.002 142.956 311.563 140.666 312.609C138.376 313.657 136.594 315.139 135.545 316.874C134.497 318.607 134.228 320.512 134.773 322.347C135.319 324.184 136.654 325.87 138.61 327.193C140.566 328.516 143.056 329.414 145.764 329.778C148.473 330.139 151.279 329.948 153.828 329.23C156.377 328.512 158.555 327.295 160.088 325.737C161.62 324.178 162.438 322.347 162.437 320.473C162.425 317.955 160.941 315.543 158.312 313.765C155.683 311.989 152.123 310.992 148.413 310.994Z" fill="#385868"/>
<path d="M156.365 310.807V315.148C154.63 328.168 137.427 338.393 116.46 338.393C95.4929 338.393 78.2906 328.168 76.5557 315.148V310.807C76.7219 309.543 77.0363 308.291 77.4954 307.063C77.6912 306.539 78.1385 306.073 78.7669 305.74C79.3952 305.408 80.1687 305.228 80.9654 305.226H151.943C152.74 305.228 153.513 305.408 154.142 305.74C154.77 306.073 155.217 306.539 155.413 307.063C155.876 308.291 156.194 309.543 156.365 310.807Z" fill="#68B9E1"/>
<path d="M156.365 306.207C156.366 306.8 156.276 307.392 156.099 307.973H111.498C111.498 311.441 107.65 314.254 102.902 314.254H102.364C101.219 314.248 100.089 314.083 99.0437 313.767C97.9983 313.449 97.0612 312.99 96.2914 312.415C94.6562 311.204 93.7563 309.616 93.7728 307.973H77.1113C76.9337 307.392 76.8444 306.8 76.8452 306.207H156.365Z" fill="#ACD8F8"/>
<path d="M116.749 339.374C106.302 339.374 96.317 336.895 88.6398 332.395C80.9625 327.895 76.2809 321.813 75.4048 315.236V315.148V310.719C75.5809 309.404 75.9105 308.101 76.3908 306.821C76.665 306.085 77.2916 305.433 78.1724 304.966C79.0529 304.501 80.1372 304.246 81.2545 304.244H152.232C153.352 304.244 154.44 304.497 155.323 304.964C156.207 305.432 156.836 306.085 157.111 306.821C157.59 308.101 157.918 309.404 158.094 310.719V310.807V315.236C157.226 321.813 152.516 327.907 144.859 332.395C137.202 336.884 127.197 339.374 116.749 339.374ZM78.2906 315.103C79.1147 321.154 83.458 326.765 90.5309 330.91C97.6848 335.102 106.996 337.412 116.749 337.412C126.503 337.412 135.817 335.104 142.968 330.91C150.038 326.765 154.384 321.154 155.208 315.103V310.852C155.044 309.655 154.742 308.47 154.306 307.306C154.189 306.992 153.921 306.715 153.546 306.517C153.17 306.317 152.708 306.209 152.232 306.209H81.2545C80.7783 306.209 80.3162 306.317 79.9406 306.517C79.5653 306.715 79.2981 306.992 79.1812 307.306C78.7443 308.47 78.4427 309.655 78.2791 310.852L78.2906 315.103Z" fill="#385868"/>
<path d="M73.6641 335.646H159.256C159.256 337.779 158.007 339.826 155.784 341.335C153.56 342.844 150.545 343.692 147.401 343.692H85.5197C82.3754 343.692 79.36 342.844 77.1366 341.335C74.9132 339.826 73.6641 337.779 73.6641 335.646Z" fill="#68B9E1"/>
<path d="M157.521 336.038C157.518 336.633 157.421 337.223 157.232 337.804H110.862C110.862 341.272 106.857 344.085 101.921 344.085H101.363C100.18 344.083 99.0108 343.92 97.9238 343.604C96.8371 343.288 95.8557 342.827 95.0388 342.246C93.3501 341.052 92.4115 339.459 92.4219 337.804H75.0953C74.9065 337.223 74.8096 336.633 74.8062 336.038H157.521Z" fill="#ACD8F8"/>
<path d="M147.69 344.673H85.8093C82.2827 344.671 78.9018 343.719 76.408 342.026C73.9143 340.334 72.5116 338.04 72.5078 335.645V334.664H160.992V335.645C160.988 338.04 159.585 340.334 157.091 342.026C154.598 343.719 151.217 344.671 147.69 344.673ZM75.5006 336.627C75.8523 338.312 77.0881 339.857 78.9819 340.974C80.8756 342.092 83.2999 342.709 85.8093 342.711H147.69C150.199 342.709 152.623 342.092 154.517 340.974C156.41 339.857 157.647 338.312 157.999 336.627H75.5006Z" fill="#385868"/>
<path d="M156.365 311.015H135.256V312.389H156.365V311.015Z" fill="#385868"/>
<g opacity="0.4">
<path opacity="0.4" d="M273.444 146.552C279.635 146.552 284.655 144.707 284.655 142.431C284.655 140.155 279.635 138.31 273.444 138.31C267.252 138.31 262.233 140.155 262.233 142.431C262.233 144.707 267.252 146.552 273.444 146.552Z" fill="white"/>
<path opacity="0.4" d="M337.27 146.552C343.461 146.552 348.481 144.707 348.481 142.431C348.481 140.155 343.461 138.31 337.27 138.31C331.079 138.31 326.06 140.155 326.06 142.431C326.06 144.707 331.079 146.552 337.27 146.552Z" fill="white"/>
</g>
</g>
<defs>
<clipPath id="clip0_240_337">
<rect width="587" height="346" fill="white"/>
</clipPath>
</defs>
</svg>
