<svg width="42" height="52" viewBox="0 0 42 52" fill="none" xmlns="http://www.w3.org/2000/svg">
<path d="M24.5 17.3332V12.9998C24.5 11.8506 24.1313 10.7484 23.4749 9.93571C22.8185 9.12305 21.9283 8.6665 21 8.6665H8.75C7.82174 8.6665 6.9315 9.12305 6.27513 9.93571C5.61875 10.7484 5.25 11.8506 5.25 12.9998V38.9998C5.25 40.1491 5.61875 41.2513 6.27513 42.064C6.9315 42.8766 7.82174 43.3332 8.75 43.3332H21C21.9283 43.3332 22.8185 42.8766 23.4749 42.064C24.1313 41.2513 24.5 40.1491 24.5 38.9998V34.6665" stroke="black" stroke-width="2" stroke-linecap="round" stroke-linejoin="round"/>
<path d="M31.5 32.5L36.75 26M12.25 26H36.75L31.5 19.5L12.25 26Z" stroke="black" stroke-width="2" stroke-linecap="round" stroke-linejoin="round"/>
</svg>
