<svg width="338" height="449" viewBox="0 0 338 449" fill="none" xmlns="http://www.w3.org/2000/svg">
<path d="M326.383 174.149C322.743 114.306 320.923 84.3843 312.451 65.0257C288.193 9.59603 217.666 -3.58739 173.123 1.46812C113.49 8.23444 45.2702 53.9423 15.241 142.193C-12.0333 222.349 0.543024 313.081 41.6395 372.433C116.976 481.236 272.378 461.81 310.34 390.416C325.49 361.923 326.582 316.414 328.187 249.563C328.958 217.383 327.453 191.739 326.383 174.149Z" fill="#F4F7FA"/>
<path d="M297.808 37.0861C293.952 32.8331 288.104 30.5168 283.16 30.049C248.116 26.7379 243.002 124.406 248.373 146.233C253.745 168.06 250.264 175.227 222.664 186.647C195.064 198.066 208.305 220.054 211.669 232.912C215.033 245.77 221.695 256.633 201.575 269.409C181.455 282.186 188.447 290.102 188.447 290.102C188.447 290.102 225.551 340.707 223.502 324.506C221.452 308.304 225.166 283.84 258.433 281.981C272.762 281.18 294.704 272.067 299.563 251.609C300.694 246.845 301.481 239.569 300.621 234.639C299.427 227.799 296.061 222.41 294.191 215.972C289.835 200.971 300.762 189.985 307.05 179.957C310.333 174.722 313.614 169.354 316.128 163.386C321.348 150.994 319.393 137.705 313.709 126.282C310.983 120.805 307.196 114.993 306.007 108.459C304.73 101.441 305.844 91.8525 306.146 84.6329C306.384 78.9703 306.789 73.3301 306.55 67.653C306.108 57.0967 304.253 44.1968 297.808 37.0861Z" fill="url(#paint0_linear_1_7)"/>
<g opacity="0.8">
<g opacity="0.8">
<path opacity="0.8" d="M185.529 318.504C185.289 318.62 185.016 318.484 184.895 318.174C184.763 317.836 184.86 317.418 185.114 317.242C185.27 317.133 200.89 306.178 218.316 288.135C234.372 271.509 255.29 245.294 263.759 214.818C270.833 189.366 277.283 147.288 281.458 99.3761C285.201 56.4122 285.793 24.6375 284.202 18.7394C284.105 18.3805 284.245 17.9849 284.514 17.8551C284.783 17.7254 285.08 17.9128 285.177 18.2716C287.038 25.1725 285.857 60.8671 282.489 99.5363C278.305 147.554 271.833 189.747 264.732 215.299C256.176 246.087 235.106 272.503 218.938 289.241C201.441 307.355 185.752 318.357 185.595 318.466C185.573 318.48 185.551 318.493 185.529 318.504Z" fill="white"/>
</g>
<g opacity="0.8">
<path opacity="0.8" d="M281.402 107.705C281.134 107.833 280.861 107.734 280.763 107.377C280.633 106.904 267.569 60.0415 250.723 49.4611C250.463 49.2993 250.359 48.9085 250.48 48.5625C250.603 48.2165 250.914 48.0803 251.172 48.2421C268.404 59.0643 281.196 104.944 281.733 106.896C281.832 107.255 281.673 107.576 281.404 107.704C281.403 107.705 281.402 107.705 281.402 107.705Z" fill="white"/>
</g>
<g opacity="0.8">
<path opacity="0.8" d="M275.03 162.051C274.831 162.147 274.598 162.071 274.455 161.839C274.273 161.544 274.305 161.109 274.526 160.867C274.622 160.761 284.24 150.242 296.108 141.414C312.143 129.486 324.432 126.156 332.633 131.517C332.89 131.686 332.996 132.099 332.87 132.442C332.743 132.784 332.433 132.925 332.176 132.757C313.307 120.423 275.563 161.516 275.184 161.932C275.137 161.985 275.084 162.025 275.03 162.051Z" fill="white"/>
</g>
<g opacity="0.8">
<path opacity="0.8" d="M233.156 273.137C233.103 273.163 233.047 273.176 232.989 273.177C232.703 273.184 232.467 272.879 232.462 272.496C232.46 272.296 232.193 252.19 229.037 231.003C226.143 211.579 220.167 187.248 208.134 181.641C207.864 181.515 207.721 181.121 207.815 180.762C207.909 180.402 208.206 180.211 208.475 180.337C218.509 185.012 225.769 201.974 230.056 230.753C233.229 252.06 233.496 272.274 233.498 272.476C233.503 272.78 233.359 273.04 233.156 273.137Z" fill="white"/>
</g>
<g opacity="0.8">
<path opacity="0.8" d="M254.568 240.652C254.358 240.753 254.115 240.663 253.976 240.412C253.805 240.104 253.854 239.672 254.084 239.446C255.753 237.801 295.115 199.216 310.466 202.901C310.748 202.968 310.934 203.328 310.884 203.703C310.833 204.08 310.564 204.33 310.282 204.261C295.367 200.681 255.105 240.157 254.7 240.556C254.659 240.599 254.614 240.63 254.568 240.652Z" fill="white"/>
</g>
</g>
<path d="M328.564 180.94C326.016 175.199 321.1 170.38 316.567 167.71C284.43 148.784 254.832 238.383 254.346 261.346C253.861 284.309 248.767 289.483 219.898 287.777C191.029 286.071 197.908 312.736 197.811 326.353C197.713 339.971 201.225 353.197 179.049 356.143C156.874 359.089 161.444 369.692 161.444 369.692C161.444 369.692 183.517 434.052 185.7 417.881C187.883 401.71 197.586 380.365 229.362 393.625C243.048 399.336 266.01 400.661 275.773 383.603C278.048 379.63 280.634 373.139 281.075 368.111C281.687 361.136 279.887 354.546 279.761 347.645C279.468 331.562 292.539 326.154 301.001 319.556C305.418 316.112 309.868 312.54 313.749 308.058C321.805 298.753 323.339 285.366 320.89 272.053C319.715 265.669 317.626 258.491 318.165 251.807C318.744 244.627 322.226 236.105 324.343 229.448C326.003 224.227 327.816 219.101 329.032 213.652C331.296 203.513 332.826 190.538 328.564 180.94Z" fill="url(#paint1_linear_1_7)"/>
<g opacity="0.8">
<g opacity="0.8">
<path opacity="0.8" d="M151.49 395.1C151.236 395.1 151.013 394.849 150.977 394.503C150.939 394.125 151.137 393.775 151.421 393.724C151.595 393.692 169.074 390.431 190.051 381.313C209.379 372.913 235.716 357.68 251.42 332.824C264.535 312.064 281.284 275.379 297.371 232.177C311.796 193.437 320.416 163.802 320.416 157.534C320.416 157.153 320.648 156.844 320.934 156.844C321.22 156.844 321.452 157.153 321.452 157.534C321.452 164.868 311.282 197.924 298.299 232.792C282.176 276.089 265.378 312.874 252.211 333.715C236.347 358.826 209.816 374.178 190.353 382.634C169.292 391.786 151.736 395.06 151.56 395.092C151.538 395.098 151.514 395.1 151.49 395.1Z" fill="white"/>
</g>
<g opacity="0.8">
<path opacity="0.8" d="M295.205 240.132C294.92 240.132 294.688 239.844 294.687 239.464C294.685 238.961 294.285 188.933 281.117 171.377C280.914 171.107 280.914 170.673 281.117 170.404C281.319 170.135 281.647 170.137 281.85 170.406C295.319 188.364 295.713 237.375 295.724 239.455C295.726 239.836 295.496 240.132 295.208 240.132C295.206 240.132 295.205 240.132 295.205 240.132Z" fill="white"/>
</g>
<g opacity="0.8">
<path opacity="0.8" d="M275.418 288.257C275.205 288.257 275.005 288.081 274.93 287.799C274.834 287.44 274.973 287.044 275.243 286.915C275.36 286.859 287.081 281.298 300.49 278.346C318.606 274.356 331.015 276.768 337.373 285.513C337.572 285.787 337.566 286.224 337.361 286.49C337.155 286.756 336.827 286.748 336.628 286.474C322.002 266.355 276.056 287.994 275.593 288.215C275.534 288.244 275.475 288.257 275.418 288.257Z" fill="white"/>
</g>
<g opacity="0.8">
<path opacity="0.8" d="M207.822 373.897C207.767 373.897 207.711 373.884 207.654 373.86C207.384 373.737 207.238 373.344 207.332 372.982C207.38 372.791 212.233 353.752 214.639 332.391C216.845 312.806 217.396 287.214 207.496 276.509C207.273 276.269 207.24 275.833 207.42 275.537C207.6 275.24 207.927 275.194 208.149 275.436C216.405 284.362 218.933 303.6 215.662 332.613C213.241 354.094 208.362 373.237 208.313 373.429C208.239 373.716 208.037 373.897 207.822 373.897Z" fill="white"/>
</g>
<g opacity="0.8">
<path opacity="0.8" d="M236.214 352.989C235.99 352.989 235.785 352.796 235.718 352.498C235.635 352.132 235.791 351.746 236.065 351.637C238.052 350.843 284.885 332.293 298.395 342.686C298.642 342.877 298.728 343.3 298.585 343.63C298.442 343.96 298.125 344.073 297.877 343.883C284.749 333.785 236.844 352.768 236.363 352.96C236.313 352.98 236.263 352.989 236.214 352.989Z" fill="white"/>
</g>
</g>
<path d="M220.836 19.5288L220.466 23.0626C219.237 23.1378 218.028 23.3493 216.852 23.7017L215.85 20.405C215.578 19.5064 214.805 19.0787 214.126 19.4519L209.877 21.7859C209.197 22.1591 208.865 23.1939 209.137 24.0942L210.144 27.4325C209.114 28.3071 208.141 29.2971 207.235 30.3927L205.101 28.1853C204.525 27.5894 203.689 27.7368 203.233 28.5153L200.379 33.385C199.921 34.1651 200.018 35.2832 200.595 35.8807L202.737 38.101C202.166 39.5298 201.687 41.0388 201.3 42.6134L198.581 42.1377C197.851 42.0095 197.171 42.6999 197.063 43.6803L196.379 49.8219C196.27 50.8054 196.774 51.7089 197.506 51.837L200.233 52.3144C200.266 53.9723 200.401 55.603 200.643 57.1905L198.084 58.613C197.394 58.9958 197.056 60.0546 197.327 60.9757L199.032 66.7521C199.305 67.678 200.087 68.1153 200.779 67.7292L203.339 66.3004C203.983 67.6972 204.717 69.0139 205.531 70.2378L203.825 73.1916C203.364 73.991 203.463 75.1347 204.046 75.7466L207.704 79.5719C208.289 80.1838 209.138 80.03 209.598 79.2275L211.284 76.2928C212.36 77.0569 213.499 77.6929 214.687 78.2007L214.304 81.8626C214.2 82.8653 214.713 83.7832 215.45 83.9114L220.067 84.7187C220.806 84.8485 221.487 84.1388 221.591 83.136L221.963 79.5014C223.219 79.4293 224.452 79.2131 225.653 78.8526L226.665 82.2102C226.947 83.1425 227.733 83.583 228.423 83.1937L232.729 80.7605C233.417 80.3712 233.745 79.3028 233.463 78.3737L232.45 75.0402C233.501 74.1351 234.491 73.1083 235.409 71.9726L237.514 74.1543C238.103 74.7647 238.946 74.6109 239.398 73.8115L242.218 68.8265C242.668 68.0304 242.556 66.8946 241.969 66.2875L239.883 64.1314C240.452 62.6625 240.924 61.1103 241.299 59.494L243.906 59.9505C244.637 60.0787 245.308 59.3819 245.403 58.3951L245.995 52.2375C246.09 51.2555 245.574 50.3553 244.844 50.2271L242.244 49.7722C242.19 48.0934 242.031 46.4467 241.765 44.8464L244.176 43.5009C244.853 43.1228 245.174 42.0784 244.893 41.1685L243.132 35.4915C242.851 34.5848 242.075 34.1555 241.397 34.532L238.971 35.8807C238.311 34.4983 237.563 33.1944 236.733 31.9882L238.336 29.1993C238.782 28.4224 238.672 27.3123 238.093 26.718L234.471 23.0065C233.892 22.4138 233.062 22.5596 232.615 23.3333L231.002 26.1253C229.933 25.3853 228.804 24.7701 227.625 24.2832L227.985 20.7767C228.083 19.8123 227.577 18.9265 226.853 18.8L222.327 18.0086C221.606 17.8853 220.937 18.5629 220.836 19.5288ZM204.88 48.1527C206.189 36.0169 214.542 27.5094 223.547 29.084C232.551 30.6586 238.875 41.734 237.665 53.8858C236.448 66.1129 228.077 74.7871 218.974 73.1964C209.871 71.6042 203.565 60.3622 204.88 48.1527Z" fill="#D8DEE8"/>
<path d="M151.441 17.6132L150.869 23.0772C148.969 23.1925 147.1 23.5193 145.281 24.0639L143.732 18.9668C143.309 17.5764 142.116 16.9164 141.068 17.4931L134.497 21.1021C133.446 21.6804 132.933 23.2774 133.353 24.6727L134.91 29.8339C133.319 31.1859 131.813 32.7157 130.414 34.4121L127.11 30.9985C126.219 30.0774 124.926 30.3064 124.221 31.5079L119.808 39.0367C119.1 40.2429 119.25 41.9713 120.142 42.8956L123.454 46.33C122.572 48.539 121.829 50.8729 121.231 53.3062L117.027 52.5709C115.899 52.3739 114.848 53.4407 114.679 54.9561L113.623 64.4536C113.453 65.9754 114.234 67.3706 115.366 67.5676L119.582 68.3045C119.632 70.8675 119.841 73.3905 120.216 75.8445L116.26 78.0439C115.193 78.6366 114.669 80.2721 115.09 81.6978L117.726 90.6282C118.147 92.0587 119.357 92.7363 120.426 92.1388L124.385 89.9298C125.38 92.0891 126.515 94.1251 127.775 96.0169L125.138 100.584C124.425 101.821 124.577 103.589 125.481 104.534L131.136 110.448C132.04 111.395 133.353 111.156 134.066 109.916L136.672 105.38C138.336 106.562 140.098 107.546 141.935 108.331L141.342 113.993C141.179 115.544 141.972 116.963 143.115 117.162L150.254 118.41C151.395 118.61 152.45 117.512 152.608 115.962L153.185 110.343C155.126 110.232 157.034 109.897 158.889 109.34L160.455 114.531C160.89 115.973 162.107 116.654 163.172 116.052L169.83 112.29C170.894 111.69 171.402 110.037 170.965 108.598L169.398 103.443C171.023 102.045 172.554 100.456 173.974 98.7001L177.228 102.074C178.137 103.017 179.441 102.778 180.14 101.545L184.5 93.8384C185.195 92.6082 185.023 90.8509 184.115 89.9122L180.891 86.5803C181.77 84.3072 182.499 81.9076 183.078 79.4103L187.11 80.1151C188.242 80.3138 189.279 79.2357 189.425 77.7107L190.341 68.1892C190.487 66.669 189.69 65.2786 188.562 65.0815L184.542 64.3783C184.459 61.7833 184.214 59.2363 183.8 56.763L187.53 54.6822C188.578 54.0975 189.075 52.4828 188.637 51.0764L185.914 42.2981C185.479 40.8964 184.279 40.2333 183.232 40.8148L179.483 42.8988C178.461 40.7603 177.304 38.7451 176.023 36.8821L178.5 32.5699C179.189 31.3701 179.021 29.6529 178.124 28.7334L172.523 22.9955C171.628 22.0792 170.343 22.3051 169.653 23.5017L167.159 27.8187C165.504 26.675 163.759 25.7235 161.937 24.969L162.493 19.5467C162.646 18.0553 161.863 16.6873 160.744 16.4919L153.746 15.268C152.63 15.0726 151.597 16.1218 151.441 17.6132ZM126.77 61.8714C128.792 43.107 141.708 29.9524 155.63 32.3873C169.552 34.8221 179.33 51.9462 177.461 70.7362C175.579 89.6399 162.636 103.054 148.562 100.592C134.486 98.1314 124.735 80.7479 126.77 61.8714Z" fill="#D8DEE8"/>
<path d="M144.744 70.5229L114.137 409.726C113.678 414.812 116.307 419.371 119.99 419.858L247.474 438.52C255.283 439.167 259.559 433.847 260.042 428.439L292.176 67.8093C292.655 62.4318 288.824 57.5605 280.981 57.5605L152.338 61.1728C148.613 61.2577 145.201 65.4642 144.744 70.5229Z" fill="url(#paint2_linear_1_7)"/>
<path d="M139.006 69.9398L108.231 410.84C107.77 415.951 110.408 420.534 114.104 421.024L246.268 438.57C250.411 439.119 254.209 435.122 254.693 429.687L287.007 67.1942C287.489 61.7879 284.446 57.4436 280.257 57.5381L146.627 60.5449C142.89 60.6266 139.465 64.8555 139.006 69.9398Z" fill="url(#paint3_linear_1_7)"/>
<path d="M141.514 88.742L112.989 404.824C112.558 409.599 115.029 413.873 118.488 414.321L242.784 430.431C246.636 430.931 250.166 427.2 250.618 422.14L280.481 87.2811C280.93 82.2481 278.105 78.1745 274.213 78.2306L148.641 80.0134C145.146 80.0615 141.943 83.9909 141.514 88.742Z" fill="#D8DEE8"/>
<path d="M208.168 69.7045C208.005 71.5194 208.982 72.9723 210.351 72.9483C211.722 72.9259 212.967 71.4329 213.13 69.6148C213.293 67.7967 212.313 66.3438 210.942 66.371C209.571 66.3982 208.33 67.8912 208.168 69.7045Z" fill="url(#paint4_linear_1_7)"/>
<path d="M163.004 300.917C188.449 238.19 226.463 219.412 237.908 154.764C244.094 119.819 239.879 86.372 232.78 58.6051L280.258 57.5367C284.448 57.4422 287.491 61.788 287.009 67.1928L254.695 429.686C254.211 435.122 250.413 439.119 246.269 438.568L142.376 424.776C141.605 368.569 151.66 328.878 163.004 300.917Z" fill="white"/>
<path d="M13.5293 105.914C13.5293 72.5817 35.336 45.5661 61.5051 45.5693C86.9004 45.5725 106.942 71.1673 106.942 102.735C106.942 134.304 86.9004 161.262 61.5051 162.993C35.3348 164.778 13.5293 139.245 13.5293 105.914Z" fill="url(#paint5_linear_1_7)"/>
<path d="M16.3506 103.256C16.3506 69.924 37.5266 42.9084 62.9375 42.9116C87.5975 42.9148 107.06 68.5096 107.06 100.078C107.06 131.646 87.5975 158.604 62.9375 160.335C37.5254 162.12 16.3506 136.586 16.3506 103.256Z" fill="url(#paint6_linear_1_7)"/>
<g opacity="0.5">
<path opacity="0.5" d="M23.5986 103.001C23.5986 74.9975 41.389 52.2989 62.7392 52.3037C83.4575 52.3069 99.8098 73.8105 99.8098 100.333C99.8098 126.855 83.4587 149.504 62.7392 150.958C41.389 152.458 23.5986 131.005 23.5986 103.001Z" fill="white"/>
</g>
<path opacity="0.5" d="M61.2714 56.6063C81.9897 56.6095 98.342 78.1131 98.342 104.635C98.342 110.942 97.4085 117.024 95.7205 122.66C98.3348 115.874 99.8125 108.28 99.8125 100.333C99.8125 73.8105 83.4614 52.3069 62.7419 52.3037C46.2755 52.3021 31.9355 65.8091 26.2324 84.833C32.69 68.1078 46.076 56.6047 61.2714 56.6063Z" fill="white"/>
<path d="M45.0381 96.147V120.588C45.0381 127.654 49.4965 133.229 54.9797 133.038L68.576 132.566C73.9932 132.377 78.3711 126.557 78.3711 119.565V95.3813L45.0381 96.147ZM57.5591 121.415L60.0857 111.206C59.0032 110.461 58.2704 108.994 58.2704 107.285C58.2704 104.776 59.849 102.702 61.7929 102.654C63.7344 102.604 65.307 104.594 65.307 107.097C65.307 108.803 64.5765 110.308 63.4977 111.112L66.0146 121.152L57.5591 121.415Z" fill="white"/>
<path d="M74.5065 93.262C73.0636 93.2941 71.8934 91.8059 71.8934 89.9365C71.8934 82.7521 67.3701 76.9854 61.792 77.0815C56.1947 77.1776 51.6257 83.1382 51.6257 90.3674C51.6257 92.248 50.4399 93.7987 48.9754 93.8323C47.5097 93.8643 46.3203 92.365 46.3203 90.4812C46.3203 79.4779 53.2801 70.4209 61.7932 70.2943C70.2607 70.1678 77.1147 78.93 77.1147 89.8276C77.1147 91.6922 75.9482 93.23 74.5065 93.262Z" fill="white"/>
<path d="M105.997 232.668C105.997 232.668 105.072 228.045 105.728 226.862C106.383 225.68 110.39 220.955 110.005 222.496C109.62 224.037 109.042 225.063 109.042 225.063C109.042 225.063 111.199 226.399 109.812 228.402C108.425 230.406 107.962 230.867 107.885 232.666C107.809 234.465 106.922 235.082 105.997 232.668Z" fill="url(#paint7_linear_1_7)"/>
<path d="M67.5104 432.225C67.5104 432.225 67.0202 436.223 67.0827 437.645C67.1451 439.068 78.9886 439.795 79.1075 438.73C79.2265 437.665 77.1504 435.968 75.6883 435.371C74.2262 434.772 69.9468 433.176 69.9468 433.176L67.5104 432.225Z" fill="url(#paint8_linear_1_7)"/>
<path d="M70.3852 428.239L70.008 433.211C70.008 433.211 68.6324 434.424 67.4202 433.488L66.8135 428.077L70.3852 428.239Z" fill="url(#paint9_linear_1_7)"/>
<path d="M46.3795 438.706C46.3795 438.706 45.8893 442.704 45.9518 444.127C46.0143 445.549 57.8577 446.276 57.9767 445.211C58.0968 444.146 56.0196 442.45 54.5575 441.852C53.0954 441.255 48.8159 439.658 48.8159 439.658L46.3795 438.706Z" fill="url(#paint10_linear_1_7)"/>
<path d="M49.2544 434.72L48.8772 439.693C48.8772 439.693 47.5016 440.905 46.2893 439.97L45.6826 434.559L49.2544 434.72Z" fill="url(#paint11_linear_1_7)"/>
<path d="M68.2363 298.446C69.6047 302.146 70.9743 305.846 72.3427 309.547C73.4432 330.664 73.991 353.629 73.639 378.187C73.3771 396.458 72.6455 413.766 71.593 430.013C69.7369 429.899 67.8807 429.785 66.0245 429.671C63.3406 422.569 60.1725 411.809 59.8805 398.526C59.5766 384.672 62.7267 382.831 62.5272 369.566C62.2677 352.371 56.8602 347.784 53.9792 327.102C52.8775 319.192 52.1363 308.861 53.0169 296.328C58.0904 297.035 63.1628 297.741 68.2363 298.446Z" fill="url(#paint12_linear_1_7)"/>
<path opacity="0.3" d="M53.0174 296.328C55.7567 296.709 58.4959 297.091 61.2363 297.472C66.1681 308.914 67.5449 320.822 66.6787 326.091C65.4544 333.544 62.2154 335.931 62.3944 343.414C62.571 350.818 65.8425 352.738 67.9173 361.464C69.3542 367.506 68.9745 373.061 68.1576 383.925C66.5117 405.808 62.5482 412.501 65.8677 419.676C66.8108 421.715 68.5108 424.142 71.8411 425.995C71.7594 427.337 71.6789 428.683 71.5936 430.011C69.7374 429.899 67.8813 429.784 66.0251 429.671C63.3411 422.569 60.173 411.809 59.8811 398.526C59.5771 384.672 62.7272 382.831 62.5278 369.566C62.2683 352.371 56.8607 347.785 53.9798 327.103C52.8781 319.193 52.1356 308.863 53.0174 296.328Z" fill="url(#paint13_linear_1_7)"/>
<path d="M60.8703 305.108C58.3005 323.792 56.031 343.788 54.2602 364.996C52.1216 390.602 50.9803 414.742 50.5322 437.154C48.4946 437.231 46.4582 437.307 44.4206 437.384C36.3928 416.209 35.9027 401.853 37.0596 392.506C37.5054 388.905 38.7176 381.843 38.9939 371.286C39.1861 363.929 38.8341 358.329 38.3944 351.598C37.4309 336.839 36.2607 333.618 36.0925 322.33C35.9339 311.735 35.9015 306.375 38.1697 303.247C44.1455 295.002 59.6917 304.377 60.8703 305.108Z" fill="url(#paint14_linear_1_7)"/>
<path d="M104.933 231.956C106.288 231.829 107.642 231.704 108.997 231.578C112.193 248.799 109.901 265.504 102.687 271.647C91.417 281.245 70.4705 263.162 65.9316 243.47C63.9397 234.826 64.3926 222.354 68.3752 219.93C69.4805 219.258 71.1962 219.153 74.9121 221.934C86.0095 230.242 86.3014 245.943 91.9432 247.273C94.4494 247.865 98.5005 245.733 104.933 231.956Z" fill="url(#paint15_linear_1_7)"/>
<path d="M73.9017 313.335C75.854 309.016 73.4019 304.851 72.8445 296.671C72.2125 287.397 74.8917 285.853 77.5408 270.486C79.3032 260.266 80.9936 250.455 78.9753 238.969C78.0081 233.465 76.367 224.13 70.5714 219.62C67.5811 217.293 63.4975 217.527 55.4541 218.087C45.5065 218.781 40.5339 219.127 36.8239 221.732C36.2809 222.113 24.9973 230.297 24.22 243.637C23.4294 257.215 34.5184 259.039 35.9974 277.145C36.6617 285.273 35.4783 297.774 34.7106 305.881C33.9742 313.666 33.466 315.659 34.6193 318.017C37.397 323.699 45.8993 322.079 62.904 318.842C69.5743 317.57 72.4444 316.558 73.9017 313.335Z" fill="url(#paint16_linear_1_7)"/>
<path d="M48.0281 274.232C47.3085 277.761 44.7231 280.396 42.9234 288.98C42.5353 290.834 39.7661 304.032 43.3571 307.28C45.4307 309.156 47.2929 305.601 52.3268 305.137C61.049 304.333 65.2046 314.107 70.9029 311.437C71.8917 310.972 73.1964 309.986 74.4999 307.717C74.7594 309.761 74.715 311.538 73.9028 313.337C72.4467 316.56 69.5753 317.572 62.9051 318.842C45.9004 322.08 37.3981 323.699 34.6204 318.018C33.4683 315.661 33.9753 313.667 34.7117 305.882C35.4794 297.773 36.6628 285.272 35.9984 277.146C34.5195 259.04 23.4293 257.215 24.2211 243.638C24.4325 240.008 25.4333 236.777 26.7729 233.962C40.8401 241.552 50.288 263.142 48.0281 274.232Z" fill="url(#paint17_linear_1_7)"/>
<path d="M30.2617 300.938L33.0766 303.335C33.5824 302.556 34.7526 300.986 36.5787 300.451C38.6367 299.847 40.9999 300.714 41.054 301.588C41.0984 302.29 39.6591 302.998 39.4369 303.107C37.6408 303.991 36.3084 303.256 35.5827 304.219C35.3256 304.558 35.0061 305.193 34.2696 305.779C34.0762 305.933 33.8743 306.069 33.7674 306.125C32.5684 306.747 30.5128 303.964 30.3362 303.721L30.2617 300.938Z" fill="url(#paint18_linear_1_7)"/>
<path d="M38.5759 251.719C40.6123 245.217 42.0227 235.261 38.8065 220.478C17.6161 231.611 6.8095 258.003 11.0288 278.924C14.5069 296.171 27.1625 304.571 29.9858 306.34C30.643 304.345 31.3002 302.353 31.9561 300.36C28.6847 295.503 24.9976 288.32 25.519 280.123C26.2422 268.76 34.4539 264.881 38.5759 251.719Z" fill="url(#paint19_linear_1_7)"/>
<path d="M54.9325 204.712C54.9325 204.712 54.7655 209.654 53.6146 213.356C52.5741 216.7 47.1053 218.804 45.9964 219.55C44.8875 220.297 48.0737 222.48 51.273 222.908C54.4724 223.337 63.6079 222.368 65.255 220.751C66.9021 219.135 63.931 219.257 61.6484 218.139C59.3645 217.021 58.0441 211.067 58.4478 208.364C58.8515 205.66 54.9325 204.712 54.9325 204.712Z" fill="url(#paint20_linear_1_7)"/>
<path d="M59.9928 202.92C61.6532 200.744 61.885 200.491 62.0652 199.74C62.7909 196.723 61.0356 192.591 58.7337 191.573C58.6136 191.521 57.0698 190.862 56.4811 191.754C55.9801 192.512 56.7166 193.56 56.367 195.022C56.039 196.39 55.1499 196.493 53.5004 198.287C52.1416 199.764 51.2982 200.683 51.1036 201.976C50.7023 204.64 53.1207 208.5 55.2617 208.396C56.0318 208.358 56.242 207.834 59.9928 202.92Z" fill="url(#paint21_linear_1_7)"/>
<path d="M55.4718 208.808C55.4718 208.808 57.2367 211.472 59.9242 210.591C62.3306 209.803 61.7167 202.437 59.9555 201.262C59.368 200.869 58.2999 200.901 57.4974 201.417C57.0228 201.721 56.8907 202.039 56.1086 202.516C55.3877 202.956 55.1583 202.896 54.9648 203.206C54.7222 203.594 54.6176 204.43 55.3781 206.445C54.8303 205.928 54.2404 205.819 53.8788 206.162C53.8211 206.216 53.6745 206.408 53.6108 206.66C53.3814 207.571 54.0926 208.499 55.4718 208.808Z" fill="url(#paint22_linear_1_7)"/>
<path d="M256.739 109.083L257.36 113.554L244.573 113.594L133.611 113.945C130.757 113.954 128.132 117.1 127.74 120.972L101.251 357.013C100.857 360.92 105.418 366.884 108.256 367.175L157.483 372.22V372.14L231.12 379.672C231.121 379.672 231.122 379.672 231.123 379.672L231.301 379.771C234.445 380.095 237.33 377.053 237.738 372.926C237.738 372.925 237.738 372.944 237.74 372.942L262.546 120.927C262.95 116.839 259.901 109.072 256.739 109.083Z" fill="url(#paint23_linear_1_7)"/>
<path d="M235.23 368.015C234.824 372.143 231.941 375.228 228.797 374.906L105.624 362.296C102.787 362.006 100.813 358.604 101.207 354.697L125.287 116.146C125.678 112.274 128.303 109.128 131.155 109.117L255.023 108.662C258.184 108.65 260.426 111.955 260.025 116.043L235.23 368.015Z" fill="url(#paint24_linear_1_7)"/>
<path d="M236.866 236.825C236.664 238.869 235.232 240.394 233.668 240.317L125.261 235.042C123.83 234.973 122.824 233.402 123.021 231.449L125.152 210.386C125.349 208.435 126.655 207.115 128.087 207.168L236.588 211.186C238.155 211.243 239.264 212.719 239.063 214.761L236.866 236.825Z" fill="white"/>
<path d="M232.669 279.623C232.467 281.672 231.034 283.42 229.47 283.315L121.145 276.181C119.715 276.086 118.72 274.262 118.917 272.307L121.066 250.837C121.263 248.885 122.581 247.211 124.011 247.288L232.402 253.117C233.966 253.202 235.073 255.089 234.871 257.134L232.669 279.623Z" fill="white"/>
<path opacity="0.1" d="M239.073 214.676C238.815 214.566 238.539 214.505 238.245 214.494L129.741 210.478C128.31 210.423 127.003 211.746 126.808 213.693L124.673 234.756C124.669 234.81 124.665 234.861 124.661 234.916C123.561 234.503 122.853 233.112 123.019 231.446L125.154 210.383C125.349 208.437 126.656 207.112 128.087 207.168L236.59 211.184C238.129 211.245 239.234 212.674 239.073 214.676Z" fill="url(#paint25_linear_1_7)"/>
<path opacity="0.1" d="M234.894 256.66C234.633 256.522 234.352 256.439 234.054 256.423L125.666 250.592C124.235 250.515 122.915 252.192 122.72 254.145L120.568 275.616C120.556 275.754 120.548 275.887 120.548 276.025C119.447 275.551 118.748 273.973 118.914 272.307L121.066 250.835C121.26 248.883 122.579 247.205 124.011 247.282L232.4 253.113C233.848 253.196 234.898 254.806 234.894 256.66Z" fill="url(#paint26_linear_1_7)"/>
<path d="M203.859 314.312C204.179 311.081 202.465 308.104 200.03 307.917L143.955 303.624C141.632 303.446 139.488 306.054 139.172 309.2L136.858 332.456C136.542 335.607 138.153 338.622 140.474 338.833L196.521 343.946C198.955 344.169 201.197 341.428 201.518 338.192L203.859 314.312Z" fill="url(#paint27_linear_1_7)"/>
<path d="M208.094 157.627C207.355 165.062 204.491 171.772 200.418 176.707C196.029 182.03 190.248 185.269 184.236 185.114C178.254 184.96 173.219 181.476 169.986 176.034C167.004 171.019 165.544 164.336 166.275 157.027C167.797 141.82 178.276 129.527 189.775 129.564C201.383 129.598 209.629 142.161 208.094 157.627Z" fill="url(#paint28_linear_1_7)"/>
<path d="M196.912 149.177C196.249 155.838 191.638 161.175 186.632 161.095C181.646 161.015 178.155 155.589 178.814 148.977C179.475 142.366 184.039 137.033 189.028 137.064C194.037 137.094 197.576 142.516 196.912 149.177Z" fill="white"/>
<path d="M200.419 176.707C196.03 182.03 190.249 185.269 184.237 185.113C178.255 184.96 173.22 181.476 169.987 176.034C173.688 169.16 179.791 164.589 186.272 164.701C192.789 164.813 198.041 169.628 200.419 176.707Z" fill="white"/>
<path opacity="0.4" d="M260.024 116.043L235.23 368.014C234.824 372.141 231.757 375.208 228.614 374.886L154.635 367.313C151.121 362.515 148.227 356.758 146.162 349.849C145.148 346.461 144.405 342.806 143.911 338.961C142.538 328.321 143.07 316.227 145.073 304.356C146.613 295.217 149.028 286.195 152.119 278.055C154.592 271.546 157.499 265.595 160.747 260.594C163.085 256.995 165.614 253.498 168.281 250.068C171.497 245.929 174.915 241.889 178.441 237.886C186.657 228.552 195.455 219.426 203.601 209.789C222.396 187.558 237.644 162.718 233.975 127.275C233.857 126.158 232.712 117.609 231.249 108.748L254.84 108.661C257.999 108.65 260.426 111.956 260.024 116.043Z" fill="white"/>
<defs>
<linearGradient id="paint0_linear_1_7" x1="226.014" y1="323.991" x2="368.639" y2="35.0924" gradientUnits="userSpaceOnUse">
<stop offset="0.00359712" stop-color="#E38DDD"/>
<stop offset="1" stop-color="#9571F6"/>
</linearGradient>
<linearGradient id="paint1_linear_1_7" x1="161.055" y1="292.796" x2="331.261" y2="292.796" gradientUnits="userSpaceOnUse">
<stop stop-color="#FF9085"/>
<stop offset="1" stop-color="#FB6FBB"/>
</linearGradient>
<linearGradient id="paint2_linear_1_7" x1="204.733" y1="239.295" x2="255.234" y2="243.426" gradientUnits="userSpaceOnUse">
<stop stop-color="#444B8C"/>
<stop offset="0.9964" stop-color="#26264F"/>
</linearGradient>
<linearGradient id="paint3_linear_1_7" x1="160.467" y1="70.44" x2="368.47" y2="601.538" gradientUnits="userSpaceOnUse">
<stop stop-color="#444B8C"/>
<stop offset="0.9964" stop-color="#26264F"/>
</linearGradient>
<linearGradient id="paint4_linear_1_7" x1="207.018" y1="56.5506" x2="444.427" y2="538.789" gradientUnits="userSpaceOnUse">
<stop stop-color="#FFC444"/>
<stop offset="0.9964" stop-color="#F36F56"/>
</linearGradient>
<linearGradient id="paint5_linear_1_7" x1="-1068.57" y1="1523.52" x2="-942.809" y2="1434.57" gradientUnits="userSpaceOnUse">
<stop stop-color="#311944"/>
<stop offset="1" stop-color="#893976"/>
</linearGradient>
<linearGradient id="paint6_linear_1_7" x1="31.3529" y1="138.351" x2="131.085" y2="70.4732" gradientUnits="userSpaceOnUse">
<stop stop-color="#FF9085"/>
<stop offset="1" stop-color="#FB6FBB"/>
</linearGradient>
<linearGradient id="paint7_linear_1_7" x1="112.434" y1="222.547" x2="92.0343" y2="238.121" gradientUnits="userSpaceOnUse">
<stop stop-color="#FFC444"/>
<stop offset="0.9964" stop-color="#F36F56"/>
</linearGradient>
<linearGradient id="paint8_linear_1_7" x1="73.1255" y1="426.984" x2="73.3631" y2="379.238" gradientUnits="userSpaceOnUse">
<stop stop-color="#AA80F9"/>
<stop offset="0.9964" stop-color="#6165D7"/>
</linearGradient>
<linearGradient id="paint9_linear_1_7" x1="69.579" y1="442.327" x2="66.5673" y2="417.816" gradientUnits="userSpaceOnUse">
<stop stop-color="#FFC444"/>
<stop offset="0.9964" stop-color="#F36F56"/>
</linearGradient>
<linearGradient id="paint10_linear_1_7" x1="52.0139" y1="426.88" x2="52.2515" y2="379.134" gradientUnits="userSpaceOnUse">
<stop stop-color="#AA80F9"/>
<stop offset="0.9964" stop-color="#6165D7"/>
</linearGradient>
<linearGradient id="paint11_linear_1_7" x1="48.1816" y1="444.956" x2="45.1699" y2="420.444" gradientUnits="userSpaceOnUse">
<stop stop-color="#FFC444"/>
<stop offset="0.9964" stop-color="#F36F56"/>
</linearGradient>
<linearGradient id="paint12_linear_1_7" x1="68.931" y1="318.011" x2="46.2464" y2="404.992" gradientUnits="userSpaceOnUse">
<stop stop-color="#311944"/>
<stop offset="1" stop-color="#893976"/>
</linearGradient>
<linearGradient id="paint13_linear_1_7" x1="75.4808" y1="361.763" x2="55.7056" y2="362.952" gradientUnits="userSpaceOnUse">
<stop stop-color="#311944"/>
<stop offset="1" stop-color="#893976"/>
</linearGradient>
<linearGradient id="paint14_linear_1_7" x1="64.5739" y1="366.708" x2="34.5533" y2="368.513" gradientUnits="userSpaceOnUse">
<stop stop-color="#311944"/>
<stop offset="1" stop-color="#893976"/>
</linearGradient>
<linearGradient id="paint15_linear_1_7" x1="88.2211" y1="234.963" x2="49.5576" y2="421.193" gradientUnits="userSpaceOnUse">
<stop stop-color="#AA80F9"/>
<stop offset="0.9964" stop-color="#6165D7"/>
</linearGradient>
<linearGradient id="paint16_linear_1_7" x1="41.1136" y1="443.14" x2="22.1509" y2="633.73" gradientUnits="userSpaceOnUse">
<stop stop-color="#AA80F9"/>
<stop offset="0.9964" stop-color="#6165D7"/>
</linearGradient>
<linearGradient id="paint17_linear_1_7" x1="4.69304" y1="377.876" x2="92.4517" y2="265.134" gradientUnits="userSpaceOnUse">
<stop stop-color="#AA80F9"/>
<stop offset="0.9964" stop-color="#6165D7"/>
</linearGradient>
<linearGradient id="paint18_linear_1_7" x1="25.6527" y1="284.512" x2="43.0349" y2="302.123" gradientUnits="userSpaceOnUse">
<stop stop-color="#FFC444"/>
<stop offset="0.9964" stop-color="#F36F56"/>
</linearGradient>
<linearGradient id="paint19_linear_1_7" x1="14.941" y1="440.536" x2="-4.0217" y2="631.126" gradientUnits="userSpaceOnUse">
<stop stop-color="#AA80F9"/>
<stop offset="0.9964" stop-color="#6165D7"/>
</linearGradient>
<linearGradient id="paint20_linear_1_7" x1="61.0626" y1="228.545" x2="44.7124" y2="213.288" gradientUnits="userSpaceOnUse">
<stop stop-color="#FFC444"/>
<stop offset="0.9964" stop-color="#F36F56"/>
</linearGradient>
<linearGradient id="paint21_linear_1_7" x1="51.9347" y1="221.231" x2="62.5476" y2="195.046" gradientUnits="userSpaceOnUse">
<stop stop-color="#444B8C"/>
<stop offset="0.9964" stop-color="#3E4177"/>
</linearGradient>
<linearGradient id="paint22_linear_1_7" x1="68.1606" y1="211.493" x2="48.8687" y2="205.052" gradientUnits="userSpaceOnUse">
<stop stop-color="#FFC444"/>
<stop offset="0.9964" stop-color="#F36F56"/>
</linearGradient>
<linearGradient id="paint23_linear_1_7" x1="101.228" y1="244.44" x2="262.583" y2="244.44" gradientUnits="userSpaceOnUse">
<stop stop-color="#311944"/>
<stop offset="1" stop-color="#893976"/>
</linearGradient>
<linearGradient id="paint24_linear_1_7" x1="199.327" y1="667.581" x2="165.211" y2="224.38" gradientUnits="userSpaceOnUse">
<stop offset="0.003597" stop-color="#F36F56"/>
<stop offset="1" stop-color="#FFC444"/>
</linearGradient>
<linearGradient id="paint25_linear_1_7" x1="122.995" y1="221.043" x2="239.088" y2="221.043" gradientUnits="userSpaceOnUse">
<stop offset="0.003597" stop-color="#F36F56"/>
<stop offset="1" stop-color="#FFC444"/>
</linearGradient>
<linearGradient id="paint26_linear_1_7" x1="118.891" y1="261.653" x2="234.894" y2="261.653" gradientUnits="userSpaceOnUse">
<stop offset="0.003597" stop-color="#F36F56"/>
<stop offset="1" stop-color="#FFC444"/>
</linearGradient>
<linearGradient id="paint27_linear_1_7" x1="175.909" y1="276.647" x2="130.662" y2="491.848" gradientUnits="userSpaceOnUse">
<stop offset="0.003597" stop-color="#F36F56"/>
<stop offset="1" stop-color="#FFC444"/>
</linearGradient>
<linearGradient id="paint28_linear_1_7" x1="184.439" y1="48.3558" x2="194.276" y2="268.05" gradientUnits="userSpaceOnUse">
<stop offset="0.003597" stop-color="#F36F56"/>
<stop offset="1" stop-color="#FFC444"/>
</linearGradient>
</defs>
</svg>
