<svg width="23" height="24" viewBox="0 0 23 24" fill="none" xmlns="http://www.w3.org/2000/svg">
<path d="M0.779244 17.4421C0.660181 17.0946 0.301163 15.8965 0.657434 14.956L9.65762 20.7563C9.70354 20.786 9.75567 20.8016 9.80874 20.8016C9.86181 20.8016 9.91394 20.786 9.95986 20.7563L22.4843 12.6856V15.092L9.80874 23.2598L0.778328 17.4421H0.779244ZM0.678499 8.59757C0.41473 9.49409 0.692237 10.7014 0.792066 11.0776L9.80874 16.8881L22.4843 8.72024V6.31078L9.95986 14.3825C9.91394 14.4122 9.86181 14.4279 9.80874 14.4279C9.75567 14.4279 9.70354 14.4122 9.65762 14.3825L0.677583 8.59757H0.678499ZM12.7404 6.61848C12.6998 6.64412 12.6543 6.65896 12.6077 6.66185C12.5611 6.66474 12.5145 6.6556 12.4715 6.63513C12.4285 6.61467 12.3904 6.58343 12.36 6.54384C12.3296 6.50426 12.3078 6.45739 12.2962 6.40687L12.0398 5.24866L10.0927 5.06874C10.0287 5.06265 9.96805 5.03395 9.91964 4.98681C9.87123 4.93968 9.83754 4.87655 9.82345 4.80659C9.80936 4.73663 9.81561 4.66348 9.8413 4.59776C9.86698 4.53203 9.91075 4.47715 9.96627 4.44107L15.075 1.14941L13.5162 0.144531L1.14284 8.11813L9.80874 13.7017L22.1821 5.72809L18.1523 3.13156L12.7395 6.61746L12.7404 6.61848ZM12.5737 4.851L12.7862 5.80988L17.5469 2.74208L15.6785 1.53787L11.1056 4.48605L12.3054 4.59646C12.3685 4.60233 12.4283 4.63016 12.4764 4.67601C12.5246 4.72186 12.5586 4.78343 12.5737 4.85202V4.851ZM22.4843 9.4992L9.95986 17.5699C9.91394 17.5996 9.86181 17.6153 9.80874 17.6153C9.75567 17.6153 9.70354 17.5996 9.65762 17.5699L0.657434 11.7707C0.300247 12.7101 0.660181 13.9082 0.779244 14.2547L9.80874 20.0744L22.4843 11.9066V9.49818V9.4992Z" fill="black"/>
</svg>
